<svg xmlns="http://www.w3.org/2000/svg" version="1.1" viewBox="0 0 130 130">
<style>
*{stroke:#000;stroke-width:0.3}
circle{fill:#000}
</style>
<rect x="5" y="5" width="120" height="120" fill="none"/>
<line x1="15" y1="5" x2="15" y2="125"/>
<line x1="25" y1="5" x2="25" y2="125"/>
<line x1="35" y1="5" x2="35" y2="125"/>
<line x1="45" y1="5" x2="45" y2="125"/>
<line x1="55" y1="5" x2="55" y2="125"/>
<line x1="65" y1="5" x2="65" y2="125"/>
<line x1="75" y1="5" x2="75" y2="125"/>
<line x1="85" y1="5" x2="85" y2="125"/>
<line x1="95" y1="5" x2="95" y2="125"/>
<line x1="105" y1="5" x2="105" y2="125"/>
<line x1="115" y1="5" x2="115" y2="125"/>
<line x1="5" y1="15" x2="125" y2="15"/>
<line x1="5" y1="25" x2="125" y2="25"/>
<line x1="5" y1="35" x2="125" y2="35"/>
<line x1="5" y1="45" x2="125" y2="45"/>
<line x1="5" y1="55" x2="125" y2="55"/>
<line x1="5" y1="65" x2="125" y2="65"/>
<line x1="5" y1="75" x2="125" y2="75"/>
<line x1="5" y1="85" x2="125" y2="85"/>
<line x1="5" y1="95" x2="125" y2="95"/>
<line x1="5" y1="105" x2="125" y2="105"/>
<line x1="5" y1="115" x2="125" y2="115"/>
<circle cx="35" cy="35" r="0.8"/>
<circle cx="65" cy="35" r="0.8"/>
<circle cx="95" cy="35" r="0.8"/>
<circle cx="35" cy="65" r="0.8"/>
<circle cx="65" cy="65" r="0.8"/>
<circle cx="95" cy="65" r="0.8"/>
<circle cx="35" cy="95" r="0.8"/>
<circle cx="65" cy="95" r="0.8"/>
<circle cx="95" cy="95" r="0.8"/>
</svg>
