<svg xmlns="http://www.w3.org/2000/svg" version="1.1" viewBox="0 0 210 210">
<style>
*{stroke:#000;stroke-width:0.3}
circle{fill:#000}
</style>
<rect x="15" y="15" width="180" height="180" fill="none"/>
<line x1="25" y1="15" x2="25" y2="195"/>
<line x1="35" y1="15" x2="35" y2="195"/>
<line x1="45" y1="15" x2="45" y2="195"/>
<line x1="55" y1="15" x2="55" y2="195"/>
<line x1="65" y1="15" x2="65" y2="195"/>
<line x1="75" y1="15" x2="75" y2="195"/>
<line x1="85" y1="15" x2="85" y2="195"/>
<line x1="95" y1="15" x2="95" y2="195"/>
<line x1="105" y1="15" x2="105" y2="195"/>
<line x1="115" y1="15" x2="115" y2="195"/>
<line x1="125" y1="15" x2="125" y2="195"/>
<line x1="135" y1="15" x2="135" y2="195"/>
<line x1="145" y1="15" x2="145" y2="195"/>
<line x1="155" y1="15" x2="155" y2="195"/>
<line x1="165" y1="15" x2="165" y2="195"/>
<line x1="175" y1="15" x2="175" y2="195"/>
<line x1="185" y1="15" x2="185" y2="195"/>
<line x1="15" y1="25" x2="195" y2="25"/>
<line x1="15" y1="35" x2="195" y2="35"/>
<line x1="15" y1="45" x2="195" y2="45"/>
<line x1="15" y1="55" x2="195" y2="55"/>
<line x1="15" y1="65" x2="195" y2="65"/>
<line x1="15" y1="75" x2="195" y2="75"/>
<line x1="15" y1="85" x2="195" y2="85"/>
<line x1="15" y1="95" x2="195" y2="95"/>
<line x1="15" y1="105" x2="195" y2="105"/>
<line x1="15" y1="115" x2="195" y2="115"/>
<line x1="15" y1="125" x2="195" y2="125"/>
<line x1="15" y1="135" x2="195" y2="135"/>
<line x1="15" y1="145" x2="195" y2="145"/>
<line x1="15" y1="155" x2="195" y2="155"/>
<line x1="15" y1="165" x2="195" y2="165"/>
<line x1="15" y1="175" x2="195" y2="175"/>
<line x1="15" y1="185" x2="195" y2="185"/>
<circle cx="45" cy="45" r="0.8"/>
<circle cx="105" cy="45" r="0.8"/>
<circle cx="165" cy="45" r="0.8"/>
<circle cx="45" cy="105" r="0.8"/>
<circle cx="105" cy="105" r="0.8"/>
<circle cx="165" cy="105" r="0.8"/>
<circle cx="45" cy="165" r="0.8"/>
<circle cx="105" cy="165" r="0.8"/>
<circle cx="165" cy="165" r="0.8"/>
</svg>
