<svg xmlns="http://www.w3.org/2000/svg" version="1.1" viewBox="0 0 110 110">
<style>
*{stroke:#000;stroke-width:0.3}
circle{fill:#000}
</style>
<rect x="15" y="15" width="80" height="80" fill="none"/>
<line x1="25" y1="15" x2="25" y2="95"/>
<line x1="35" y1="15" x2="35" y2="95"/>
<line x1="45" y1="15" x2="45" y2="95"/>
<line x1="55" y1="15" x2="55" y2="95"/>
<line x1="65" y1="15" x2="65" y2="95"/>
<line x1="75" y1="15" x2="75" y2="95"/>
<line x1="85" y1="15" x2="85" y2="95"/>
<line x1="15" y1="25" x2="95" y2="25"/>
<line x1="15" y1="35" x2="95" y2="35"/>
<line x1="15" y1="45" x2="95" y2="45"/>
<line x1="15" y1="55" x2="95" y2="55"/>
<line x1="15" y1="65" x2="95" y2="65"/>
<line x1="15" y1="75" x2="95" y2="75"/>
<line x1="15" y1="85" x2="95" y2="85"/>
<circle cx="35" cy="35" r="0.8"/>
<circle cx="55" cy="35" r="0.8"/>
<circle cx="75" cy="35" r="0.8"/>
<circle cx="35" cy="55" r="0.8"/>
<circle cx="55" cy="55" r="0.8"/>
<circle cx="75" cy="55" r="0.8"/>
<circle cx="35" cy="75" r="0.8"/>
<circle cx="55" cy="75" r="0.8"/>
<circle cx="75" cy="75" r="0.8"/>
</svg>
