<!-- Created with Inkscape (http://www.inkscape.org/) -->
<svg xmlns:rdf="http://www.w3.org/1999/02/22-rdf-syntax-ns#" xmlns="http://www.w3.org/2000/svg" version="1.1" xmlns:cc="http://creativecommons.org/ns#" xmlns:dc="http://purl.org/dc/elements/1.1/" viewBox="0 0 50 50">
<defs></defs>
<metadata>
<rdf:RDF>
<cc:Work rdf:about="">
<dc:format>image/svg+xml</dc:format>
<dc:type rdf:resource="http://purl.org/dc/dcmitype/StillImage"/>
<dc:title/>
</cc:Work>
</rdf:RDF>
</metadata>
<g transform="translate(0,-1002.3622)">
<text style="letter-spacing:0px;word-spacing:0px;" font-weight="normal" xml:space="preserve" transform="translate(0,1022.3622)" font-size="40px" font-style="normal" y="7.6377478" x="5.4800777" font-family="Sans" line-height="125%" fill="#000000"><tspan x="5.4800777" y="7.6377478"/></text>
<path stroke-linejoin="miter" d="M0,0,0,30m10-30,0,30m10-30,0,30m10-30,0,30m-30-30,30,0m-30,10,30,0m-30,10,30,0m-30,10,30,0" stroke="#000" stroke-linecap="butt" stroke-width="1pt" fill="none"/>
<path stroke-linejoin="miter" d="M0,0,0,30m10-30,0,30m10-30,0,30m10-30,0,30m-30-30,30,0m-30,10,30,0m-30,10,30,0m-30,10,30,0" stroke="#000" stroke-linecap="butt" stroke-width="1pt" fill="none"/>
<path stroke-linejoin="miter" d="M0,0,0,30m10-30,0,30m10-30,0,30m10-30,0,30m-30-30,30,0m-30,10,30,0m-30,10,30,0m-30,10,30,0" stroke="#000" stroke-linecap="butt" stroke-width="1pt" fill="none"/>
<path stroke-linejoin="miter" d="m2.3865,1.7157,0,16.705m10-16.705,0,16.705m10-16.705,0,16.705m-20-16.705h21.39m-21.39,10h21.39" stroke="#000" stroke-linecap="butt" stroke-width="1pt" fill="none"/>
<path stroke-linejoin="round" d="m14.147,1009.4,21.705,0c3.9597,0,7.1474,3.3607,7.1474,7.5347v13.305c0,4.1742-3.1878,7.5345-7.1474,7.5345h-10.853c-1.8088,0-10.641,7.6257-10.641,7.6257s1.5974-7.6257-0.21134-7.6257c-3.9597,0-7.1474-3.3603-7.1474-7.5345v-13.305c0-4.174,3.1878-7.5347,7.1474-7.5347z" stroke="#000" stroke-miterlimit="4" stroke-dasharray="none" stroke-width="1.99986231" fill="none"/>
<path stroke-linejoin="miter" d="m14.494,1016.7,21.176,0" stroke="#000" stroke-linecap="butt" stroke-miterlimit="4" stroke-dasharray="none" stroke-width="1.99986231" fill="none"/>
<path stroke-linejoin="miter" d="m14.494,1020.9,21.176,0" stroke="#000" stroke-linecap="butt" stroke-miterlimit="4" stroke-dasharray="none" stroke-width="1.99986231" fill="none"/>
<path stroke-linejoin="miter" d="m14.494,1025.2,21.176,0" stroke="#000" stroke-linecap="butt" stroke-miterlimit="4" stroke-dasharray="none" stroke-width="1.99986231" fill="none"/>
<path stroke-linejoin="miter" d="m14.494,1029.4,16.941,0" stroke="#000" stroke-linecap="butt" stroke-miterlimit="4" stroke-dasharray="none" stroke-width="1.99986231" fill="none"/>
</g>
</svg>
