<!-- Created with Inkscape (http://www.inkscape.org/) -->
<svg xmlns:rdf="http://www.w3.org/1999/02/22-rdf-syntax-ns#" xmlns="http://www.w3.org/2000/svg" version="1.1" xmlns:cc="http://creativecommons.org/ns#" xmlns:dc="http://purl.org/dc/elements/1.1/" viewBox="0 0 630 630">
<metadata>
<rdf:RDF>
<cc:Work rdf:about="">
<dc:format>image/svg+xml</dc:format>
<dc:type rdf:resource="http://purl.org/dc/dcmitype/StillImage"/>
<dc:title/>
<cc:license rdf:resource="http://creativecommons.org/licenses/by-sa/3.0/"/>
<dc:creator>
<cc:Agent>
<dc:title>hickop@gmail.com</dc:title>
</cc:Agent>
</dc:creator>
</cc:Work>
<cc:License rdf:about="http://creativecommons.org/licenses/by-sa/3.0/">
<cc:permits rdf:resource="http://creativecommons.org/ns#Reproduction"/>
<cc:permits rdf:resource="http://creativecommons.org/ns#Distribution"/>
<cc:requires rdf:resource="http://creativecommons.org/ns#Notice"/>
<cc:requires rdf:resource="http://creativecommons.org/ns#Attribution"/>
<cc:permits rdf:resource="http://creativecommons.org/ns#DerivativeWorks"/>
<cc:requires rdf:resource="http://creativecommons.org/ns#ShareAlike"/>
</cc:License>
</rdf:RDF>
</metadata>
<g transform="translate(-15,-407.36218)">
<g transform="translate(30,-30.00002)">
<path stroke-linejoin="miter" d="m30,482.36,540,0,0,540-540,0z" stroke="#000" stroke-linecap="butt" stroke-width="1px" fill="none"/>
<path stroke-linejoin="miter" d="m60,482.36,0,540" stroke="#000" stroke-linecap="butt" stroke-width="1px" fill="none"/>
<path stroke-linejoin="miter" d="M90,1022.4,90,482.36" stroke="#000" stroke-linecap="butt" stroke-width="1px" fill="none"/>
<path stroke-linejoin="miter" d="m120,482.36,0,540" stroke="#000" stroke-linecap="butt" stroke-width="1px" fill="none"/>
<path stroke-linejoin="miter" d="m150,1022.4,0-540" stroke="#000" stroke-linecap="butt" stroke-width="1px" fill="none"/>
<path stroke-linejoin="miter" d="m180,482.36,0,540" stroke="#000" stroke-linecap="butt" stroke-width="1px" fill="none"/>
<path stroke-linejoin="miter" d="m210,1022.4,0-540" stroke="#000" stroke-linecap="butt" stroke-width="1px" fill="none"/>
<path stroke-linejoin="miter" d="m240,482.36,0,540" stroke="#000" stroke-linecap="butt" stroke-width="1px" fill="none"/>
<path stroke-linejoin="miter" d="m270,1022.4,0-540" stroke="#000" stroke-linecap="butt" stroke-width="1px" fill="none"/>
<path stroke-linejoin="miter" d="m300,482.36,0,540" stroke="#000" stroke-linecap="butt" stroke-width="1px" fill="none"/>
<path stroke-linejoin="miter" d="m330,1022.4,0-540" stroke="#000" stroke-linecap="butt" stroke-width="1px" fill="none"/>
<path stroke-linejoin="miter" d="m360,482.36,0,540" stroke="#000" stroke-linecap="butt" stroke-width="1px" fill="none"/>
<path stroke-linejoin="miter" d="m390,1022.4,0-540" stroke="#000" stroke-linecap="butt" stroke-width="1px" fill="none"/>
<path stroke-linejoin="miter" d="m420,482.36,0,540" stroke="#000" stroke-linecap="butt" stroke-width="1px" fill="none"/>
<path stroke-linejoin="miter" d="m450,1022.4,0-540" stroke="#000" stroke-linecap="butt" stroke-width="1px" fill="none"/>
<path stroke-linejoin="miter" d="m480,482.36,0,540" stroke="#000" stroke-linecap="butt" stroke-width="1px" fill="none"/>
<path stroke-linejoin="miter" d="m510,1022.4,0-540" stroke="#000" stroke-linecap="butt" stroke-width="1px" fill="none"/>
<path stroke-linejoin="miter" d="m540,482.36,0,540" stroke="#000" stroke-linecap="butt" stroke-width="1px" fill="none"/>
<path stroke-linejoin="miter" d="m570,992.36-540,0" stroke="#000" stroke-linecap="butt" stroke-width="1px" fill="none"/>
<path stroke-linejoin="miter" d="m30,962.36,540,0" stroke="#000" stroke-linecap="butt" stroke-width="1px" fill="none"/>
<path stroke-linejoin="miter" d="m570,932.36-540,0" stroke="#000" stroke-linecap="butt" stroke-width="1px" fill="none"/>
<path stroke-linejoin="miter" d="m30,902.36,540,0" stroke="#000" stroke-linecap="butt" stroke-width="1px" fill="none"/>
<path stroke-linejoin="miter" d="m570,872.36-540,0" stroke="#000" stroke-linecap="butt" stroke-width="1px" fill="none"/>
<path stroke-linejoin="miter" d="m30,842.36,540,0" stroke="#000" stroke-linecap="butt" stroke-width="1px" fill="none"/>
<path stroke-linejoin="miter" d="m570,812.36-540,0" stroke="#000" stroke-linecap="butt" stroke-width="1px" fill="none"/>
<path stroke-linejoin="miter" d="m30,782.36,540,0" stroke="#000" stroke-linecap="butt" stroke-width="1px" fill="none"/>
<path stroke-linejoin="miter" d="m570,752.36-540,0" stroke="#000" stroke-linecap="butt" stroke-width="1px" fill="none"/>
<path stroke-linejoin="miter" d="m30,722.36,540,0" stroke="#000" stroke-linecap="butt" stroke-width="1px" fill="none"/>
<path stroke-linejoin="miter" d="m570,692.36-540,0" stroke="#000" stroke-linecap="butt" stroke-width="1px" fill="none"/>
<path stroke-linejoin="miter" d="m30,662.36,540,0" stroke="#000" stroke-linecap="butt" stroke-width="1px" fill="none"/>
<path stroke-linejoin="miter" d="m30,632.36,540,0" stroke="#000" stroke-linecap="butt" stroke-width="1px" fill="none"/>
<path stroke-linejoin="miter" d="m570,602.36-540,0" stroke="#000" stroke-linecap="butt" stroke-width="1px" fill="none"/>
<path stroke-linejoin="miter" d="m30,572.36,540,0" stroke="#000" stroke-linecap="butt" stroke-width="1px" fill="none"/>
<path stroke-linejoin="miter" d="m570,542.36-540,0" stroke="#000" stroke-linecap="butt" stroke-width="1px" fill="none"/>
<path stroke-linejoin="miter" d="m30,512.36,540,0" stroke="#000" stroke-linecap="butt" stroke-width="1px" fill="#ffb380"/>
<path d="m150,135c0,8.2843-6.7157,15-15,15s-15-6.7157-15-15,6.7157-15,15-15,15,6.7157,15,15z" transform="matrix(0.09416469,-0.13751651,0.13751651,0.09416469,88.723038,578.21468)" fill="#000"/>
<path d="m150,135c0,8.2843-6.7157,15-15,15s-15-6.7157-15-15,6.7157-15,15-15,15,6.7157,15,15z" transform="matrix(0.09416469,-0.13751651,0.13751651,0.09416469,448.72304,578.21468)" fill="#000"/>
<path d="m150,135c0,8.2843-6.7157,15-15,15s-15-6.7157-15-15,6.7157-15,15-15,15,6.7157,15,15z" transform="matrix(0.09416469,-0.13751651,0.13751651,0.09416469,268.72304,578.21468)" fill="#000"/>
<path d="m150,135c0,8.2843-6.7157,15-15,15s-15-6.7157-15-15,6.7157-15,15-15,15,6.7157,15,15z" transform="matrix(0.09416469,-0.13751651,0.13751651,0.09416469,448.72304,758.21468)" fill="#000"/>
<path d="m150,135c0,8.2843-6.7157,15-15,15s-15-6.7157-15-15,6.7157-15,15-15,15,6.7157,15,15z" transform="matrix(0.09416469,-0.13751651,0.13751651,0.09416469,268.72304,758.21468)" fill="#000"/>
<path d="m150,135c0,8.2843-6.7157,15-15,15s-15-6.7157-15-15,6.7157-15,15-15,15,6.7157,15,15z" transform="matrix(0.09416469,-0.13751651,0.13751651,0.09416469,448.72304,938.21468)" fill="#000"/>
<path d="m150,135c0,8.2843-6.7157,15-15,15s-15-6.7157-15-15,6.7157-15,15-15,15,6.7157,15,15z" transform="matrix(0.09416469,-0.13751651,0.13751651,0.09416469,268.72304,938.21468)" fill="#000"/>
<path d="m150,135c0,8.2843-6.7157,15-15,15s-15-6.7157-15-15,6.7157-15,15-15,15,6.7157,15,15z" transform="matrix(0.09416469,-0.13751651,0.13751651,0.09416469,88.723038,938.21468)" fill="#000"/>
<path d="m150,135c0,8.2843-6.7157,15-15,15s-15-6.7157-15-15,6.7157-15,15-15,15,6.7157,15,15z" transform="matrix(0.09416469,-0.13751651,0.13751651,0.09416469,88.723038,758.21468)" fill="#000"/>
</g>
<g style="letter-spacing:15px;" font-weight="normal" font-size="20px" font-style="normal" font-stretch="normal" line-height="100%" font-variant="normal" font-family="Serif">
<path style="" d="m56.921,422.42,5.3516,0-2.6758-6.9336-2.6758,6.9336m-4.1211,5.2832,0-1.0352,1.2793,0,5.1953-13.545,1.6406,0,5.2051,13.545,1.4355,0,0,1.0352-5.3027,0,0-1.0352,1.6211,0-1.2207-3.2031-6.1328,0-1.2207,3.2031,1.6016,0,0,1.0352-4.1016,0"/>
<path style="" d="m87.312,426.67,2.9199,0c1.1719,0,2.028-0.2539,2.5684-0.76172,0.54035-0.50781,0.81054-1.3151,0.81055-2.4219-0.000011-1.1003-0.27019-1.901-0.81055-2.4024-0.53386-0.5078-1.39-0.76171-2.5684-0.76172h-2.9199v6.3477m0-7.3828,2.4805,0c1.0677,0.00001,1.8457-0.20507,2.334-0.61524,0.49478-0.41014,0.74218-1.0579,0.74219-1.9434-0.000011-0.89191-0.24741-1.5397-0.74219-1.9434-0.48829-0.41014-1.2663-0.61522-2.334-0.61523h-2.4805v5.1172m-3.8379,8.418,0-1.0352,1.8555,0,0-12.5-1.8555,0,0-1.0449,7.1973,0c1.4713,0.00001,2.5781,0.30275,3.3203,0.9082,0.74869,0.59897,1.123,1.4974,1.123,2.6953-0.000012,0.8659-0.26043,1.556-0.78125,2.0703-0.51433,0.51433-1.2695,0.83008-2.2656,0.94726,1.237,0.15626,2.1745,0.55339,2.8125,1.1914,0.64452,0.63151,0.96678,1.4811,0.9668,2.5488-0.000013,1.4453-0.45574,2.5098-1.3672,3.1934-0.91147,0.68359-2.334,1.0254-4.2676,1.0254h-6.7383"/>
<path style="" d="m126.55,423.84c-0.4297,1.3607-1.1524,2.3926-2.168,3.0957-1.0091,0.69661-2.2884,1.0449-3.8379,1.0449-0.95053,0-1.8327-0.16276-2.6465-0.48828-0.81381-0.32552-1.5365-0.80404-2.168-1.4356-0.72917-0.72916-1.2728-1.556-1.6309-2.4805-0.35157-0.93098-0.52735-1.9824-0.52735-3.1543,0-2.2656,0.6543-4.0918,1.9629-5.4785,1.3086-1.3932,3.0338-2.0898,5.1758-2.0898,0.79426,0.00001,1.6406,0.10418,2.5391,0.3125,0.89842,0.20834,1.8652,0.5241,2.9004,0.94726v3.3594h-1.1035c-0.24089-1.224-0.72592-2.1256-1.4551-2.7051-0.72266-0.57941-1.7383-0.86913-3.0469-0.86914-1.556,0.00001-2.7344,0.5534-3.5352,1.6602-0.80078,1.1003-1.2012,2.7214-1.2012,4.8633,0,2.1354,0.40039,3.7565,1.2012,4.8633,0.80078,1.1003,1.9792,1.6504,3.5352,1.6504,1.0872,0,1.9824-0.25716,2.6856-0.77149,0.70311-0.52083,1.2109-1.2956,1.5234-2.3242h1.7969"/>
<path style="" d="m147.11,426.67,1.8164,0c1.8945,0,3.3464-0.54036,4.3555-1.6211,1.0156-1.0807,1.5234-2.6302,1.5234-4.6484-0.00002-2.0182-0.50457-3.5612-1.5137-4.6289s-2.4642-1.6016-4.3652-1.6016h-1.8164v12.5m-3.8379,1.0352,0-1.0352,1.8555,0,0-12.5-1.8555,0,0-1.0449,5.8008,0c2.513,0.00001,4.4694,0.64129,5.8691,1.9238,1.4062,1.2826,2.1094,3.0664,2.1094,5.3516-0.00001,2.2917-0.70314,4.082-2.1094,5.3711s-3.3626,1.9336-5.8691,1.9336h-5.8008"/>
<path style="" d="m174.32,427.7,0-1.0352,1.8555,0,0-12.5-1.8555,0,0-1.0449,11.738,0,0,3.2422-1.2012,0,0-2.041-6.6992,0,0,4.8828,4.7754,0,0-1.8262,1.2012,0,0,4.8438-1.2012,0,0-1.8262-4.7754,0,0,6.1035,6.8555,0,0-2.041,1.2012,0,0,3.2422-11.895,0"/>
<path style="" d="m204.1,427.7,0-1.0352,1.8555,0,0-12.5-1.8555,0,0-1.0449,11.934,0,0,3.2422-1.2012,0,0-2.041-6.8945,0,0,4.8828,4.9805,0,0-1.8262,1.2012,0,0,4.8438-1.2012,0,0-1.8262-4.9805,0,0,6.2695,2.334,0,0,1.0352-6.1719,0"/>
<path style="" d="m244.8,417.48c-0.22788-1.2174-0.70313-2.1159-1.4258-2.6953-0.72267-0.58592-1.7285-0.87889-3.0176-0.8789-1.6797,0.00001-2.933,0.54038-3.7598,1.6211-0.82683,1.0807-1.2402,2.7149-1.2402,4.9024,0,2.1419,0.42643,3.763,1.2793,4.8633,0.85286,1.1003,2.1061,1.6504,3.7598,1.6504,0.73566,0,1.4388-0.0912,2.1094-0.27344,0.67056-0.18229,1.3086-0.45573,1.9141-0.82031v-3.7598h-2.7441v-1.0449h4.7266v5.4394c-0.86589,0.50131-1.8001,0.87891-2.8027,1.1328-0.9961,0.24739-2.0638,0.37109-3.2031,0.37109-2.2005,0-3.9648-0.68685-5.293-2.0606-1.3216-1.3802-1.9824-3.2129-1.9824-5.498,0-2.3047,0.66407-4.1406,1.9922-5.5078,1.3281-1.3737,3.1152-2.0605,5.3613-2.0605,0.83332,0.00001,1.6927,0.0977,2.5781,0.29297,0.89191,0.18881,1.8392,0.47852,2.8418,0.86914v3.457h-1.0938"/>
<path style="" d="m262.42,427.7,0-1.0352,1.8555,0,0-12.5-1.8555,0,0-1.0449,5.6934,0,0,1.0449-1.8555,0,0,5.0391,7.5586,0,0-5.0391-1.8555,0,0-1.0449,5.6934,0,0,1.0449-1.8555,0,0,12.5,1.8555,0,0,1.0352-5.6934,0,0-1.0352,1.8555,0,0-6.2695-7.5586,0,0,6.2695,1.8555,0,0,1.0352-5.6934,0"/>
<path style="" d="m294.09,431.2,0-2.2949,1.1133,0c0.0195,0.64453,0.17252,1.123,0.45898,1.4356,0.28646,0.319,0.71615,0.47851,1.2891,0.47851,0.77474,0,1.3151-0.24414,1.6211-0.73242,0.30598-0.48828,0.45898-1.4421,0.45898-2.8613v-13.057h-2.2656v-1.0449h6.1035v1.0449h-1.8555v13.135c0,1.6081-0.32227,2.7702-0.96679,3.4863-0.64454,0.71615-1.683,1.0742-3.1152,1.0742-0.46224,0-0.93099-0.0553-1.4062-0.16601-0.48177-0.11068-0.96028-0.2767-1.4355-0.49805"/>
<path style="" d="m322.99,427.7,0-1.0352,1.8555,0,0-12.5-1.8555,0,0-1.0449,5.6934,0,0,1.0449-1.8555,0,0,5.5176,6.2793-5.5176-1.582,0,0-1.0449,4.8438,0,0,1.0449-1.6406,0-6.2598,5.498,7.002,7.002,1.6602,0,0,1.0352-3.3887,0-6.9141-6.9238,0,5.8887,1.8555,0,0,1.0352-5.6934,0"/>
<path style="" d="m352.95,427.7,0-1.0352,1.8555,0,0-12.5-1.8555,0,0-1.0449,5.6934,0,0,1.0449-1.8555,0,0,12.334,6.6602,0,0-2.4414,1.2012,0,0,3.6426-11.699,0"/>
<path style="" d="m381.27,427.7,0-1.0352,1.8555,0,0-12.5-1.9629,0,0-1.0449,4.248,0,5.1172,10.381,5.1172-10.381,3.9844,0,0,1.0449-1.9434,0,0,12.5,1.8652,0,0,1.0352-5.7031,0,0-1.0352,1.8555,0,0-11.27-5,10.166-1.377,0-5-10.166,0,11.27,1.8555,0,0,1.0352-4.9121,0"/>
<path style="" d="m412.19,427.7,0-1.0352,1.9629,0,0-12.5-1.9629,0,0-1.0449,3.7402,0,8.7402,11.504,0-10.459-1.9531,0,0-1.0449,5.1172,0,0,1.0449-1.9629,0,0,13.818-1.1816,0-9.3359-12.285,0,10.967,1.9629,0,0,1.0352-5.127,0"/>
<path style="" d="m449.96,426.94c1.595,0,2.7995-0.54688,3.6133-1.6406,0.81379-1.1002,1.2207-2.7246,1.2207-4.873-0.00001-2.1549-0.40691-3.7793-1.2207-4.873-0.81382-1.1002-2.0182-1.6504-3.6133-1.6504-1.6016,0.00001-2.8092,0.55014-3.623,1.6504-0.81381,1.0938-1.2207,2.7181-1.2207,4.873-0.00001,2.1484,0.40689,3.7728,1.2207,4.873,0.8138,1.0938,2.0215,1.6406,3.623,1.6406m0,1.0449c-0.9896,0-1.901-0.16276-2.7344-0.48828-0.82683-0.32552-1.556-0.80404-2.1875-1.4356-0.72917-0.72916-1.2728-1.556-1.6309-2.4805-0.35156-0.92447-0.52734-1.9759-0.52734-3.1543s0.17578-2.2298,0.52734-3.1543c0.35807-0.93098,0.90169-1.7611,1.6309-2.4902,0.63802-0.638,1.3672-1.1165,2.1875-1.4355,0.82031-0.32551,1.7318-0.48827,2.7344-0.48828,2.1159,0.00001,3.8248,0.69337,5.127,2.0801,1.3021,1.3867,1.9531,3.2162,1.9531,5.4883-0.00001,1.1654-0.17905,2.2168-0.53711,3.1543-0.35808,0.931-0.9017,1.7578-1.6309,2.4805-0.63803,0.63802-1.3672,1.1198-2.1875,1.4453-0.82032,0.31901-1.7285,0.47852-2.7246,0.47852"/>
<path style="" d="m478.11,420.28,2.5781,0c0.97005,0.00001,1.709-0.26041,2.2168-0.78125,0.5078-0.52733,0.76171-1.2858,0.76172-2.2754-0.00001-0.99608-0.25392-1.7545-0.76172-2.2754-0.50782-0.52082-1.2468-0.78124-2.2168-0.78125h-2.5781v6.1133m-3.8379,7.4219,0-1.0352,1.8555,0,0-12.5-1.8555,0,0-1.0449,6.8945,0c1.4583,0.00001,2.6139,0.37111,3.4668,1.1133,0.85286,0.73569,1.2793,1.7318,1.2793,2.9883-0.00001,1.25-0.42644,2.2461-1.2793,2.9883-0.85287,0.7422-2.0085,1.1133-3.4668,1.1133h-3.0566v5.3418h2.2559v1.0352h-6.0938"/>
<path style="" d="m510.21,427.99c-2.2331,0-4.0104-0.68359-5.332-2.0508-1.3216-1.3737-1.9824-3.2096-1.9824-5.5078,0-1.1784,0.17578-2.2298,0.52735-3.1543,0.35807-0.93098,0.90169-1.7611,1.6309-2.4902,0.63801-0.638,1.3672-1.1165,2.1875-1.4355,0.8203-0.32551,1.7318-0.48827,2.7344-0.48828,2.1159,0.00001,3.8249,0.69337,5.127,2.0801s1.9531,3.2162,1.9531,5.4883c-0.00002,1.9271-0.4883,3.5482-1.4648,4.8633-0.97658,1.3086-2.3242,2.1517-4.043,2.5293,0.35155,0.4362,0.77798,0.75847,1.2793,0.9668,0.50781,0.20833,1.1165,0.3125,1.8262,0.3125h0.30273v1.8066c-1.1003-0.0521-2.0443-0.32227-2.832-0.81055-0.78126-0.48177-1.4193-1.1849-1.9141-2.1094m-0.23438-1.0449c1.595,0,2.7995-0.54688,3.6133-1.6406,0.81379-1.1002,1.2207-2.7246,1.2207-4.873-0.00002-2.1549-0.40692-3.7793-1.2207-4.873-0.81381-1.1002-2.0182-1.6504-3.6133-1.6504-1.6016,0.00001-2.8092,0.55014-3.623,1.6504-0.81381,1.0938-1.2207,2.7181-1.2207,4.873,0,2.1484,0.4069,3.7728,1.2207,4.873,0.81379,1.0938,2.0215,1.6406,3.623,1.6406"/>
<path style="" d="m542.59,420.47c0.45572,0.1237,0.84634,0.33529,1.1719,0.63476,0.33202,0.29298,0.62825,0.70639,0.88868,1.2402l2.1191,4.3262h1.7773v1.0352h-3.4375l-2.2754-4.6387c-0.43621-0.89843-0.8366-1.4778-1.2012-1.7383-0.36459-0.26692-0.86589-0.40038-1.5039-0.40039h-2.1777v5.7422h2.0605v1.0352h-5.8984v-1.0352h1.8555v-12.5h-1.8555v-1.0449h7.3926c1.4193,0.00001,2.513,0.33855,3.2812,1.0156,0.77472,0.6771,1.1621,1.6374,1.1621,2.8809-0.00001,1.0026-0.28321,1.7936-0.8496,2.373-0.55991,0.57292-1.3965,0.931-2.5098,1.0742m-4.6387-0.58594,2.8809,0c0.98306,0.00001,1.709-0.23111,2.1777-0.69336,0.46874-0.46874,0.70312-1.1914,0.70313-2.168-0.00001-0.97655-0.23439-1.696-0.70313-2.1582-0.46876-0.46223-1.1947-0.69335-2.1777-0.69336h-2.8809v5.7129"/>
<path style="" d="m565.02,427,0-3.3203,1.123,0.01c0.0325,1.1068,0.35155,1.9271,0.95703,2.4609,0.61197,0.52735,1.5397,0.79102,2.7832,0.79102,1.1588,0,2.041-0.22787,2.6465-0.6836,0.61197-0.46223,0.91796-1.1328,0.91797-2.0117-0.00001-0.70313-0.18555-1.2435-0.55664-1.6211-0.36459-0.3776-1.1393-0.74544-2.3242-1.1035l-1.9238-0.57618c-1.3932-0.42317-2.3763-0.95051-2.9492-1.582-0.56641-0.6315-0.84961-1.4974-0.84961-2.5976,0-1.237,0.43945-2.1973,1.3184-2.8809,0.8789-0.68358,2.1126-1.0254,3.7012-1.0254,0.67707,0.00001,1.4193,0.0749,2.2266,0.22461,0.80728,0.14324,1.6667,0.35483,2.5781,0.63476v3.1055h-1.1035c-0.11069-1.0286-0.45574-1.7708-1.0352-2.2266-0.57292-0.46223-1.4486-0.69335-2.627-0.69336-1.0286,0.00001-1.8132,0.2116-2.3535,0.63476-0.53386,0.41668-0.80079,1.0254-0.80079,1.8262,0,0.69662,0.20182,1.2435,0.60547,1.6406,0.40364,0.39715,1.2598,0.79103,2.5684,1.1816l1.8066,0.53711c1.3216,0.39714,2.2624,0.90496,2.8223,1.5234,0.56639,0.61198,0.8496,1.4356,0.84961,2.4707-0.00001,1.4128-0.45249,2.4772-1.3574,3.1934-0.90496,0.71615-2.2526,1.0742-4.043,1.0742-0.80079,0-1.6178-0.0814-2.4512-0.24414-0.82683-0.16276-1.6699-0.41016-2.5293-0.74219"/>
<path style="" d="m597.06,427.7,0-1.0352,1.8652,0,0-12.383-4.2871,0,0,2.2754-1.2012,0,0-3.4375,12.949,0,0,3.4375-1.2012,0,0-2.2754-4.2871,0,0,12.383,1.8652,0,0,1.0352-5.7031,0"/>
</g>
<g style="letter-spacing:15px;" font-weight="normal" transform="translate(10e-7,600.004)" font-size="20px" font-stretch="normal" line-height="100%" font-variant="normal" font-family="Serif" font-style="normal">
<path d="m56.921,422.42,5.3516,0-2.6758-6.9336-2.6758,6.9336m-4.1211,5.2832,0-1.0352,1.2793,0,5.1953-13.545,1.6406,0,5.2051,13.545,1.4355,0,0,1.0352-5.3027,0,0-1.0352,1.6211,0-1.2207-3.2031-6.1328,0-1.2207,3.2031,1.6016,0,0,1.0352-4.1016,0"/>
<path d="m87.312,426.67,2.9199,0c1.1719,0,2.028-0.2539,2.5684-0.76172,0.54035-0.50781,0.81054-1.3151,0.81055-2.4219-0.000011-1.1003-0.27019-1.901-0.81055-2.4024-0.53386-0.5078-1.39-0.76171-2.5684-0.76172h-2.9199v6.3477m0-7.3828,2.4805,0c1.0677,0.00001,1.8457-0.20507,2.334-0.61524,0.49478-0.41014,0.74218-1.0579,0.74219-1.9434-0.000011-0.89191-0.24741-1.5397-0.74219-1.9434-0.48829-0.41014-1.2663-0.61522-2.334-0.61523h-2.4805v5.1172m-3.8379,8.418,0-1.0352,1.8555,0,0-12.5-1.8555,0,0-1.0449,7.1973,0c1.4713,0.00001,2.5781,0.30275,3.3203,0.9082,0.74869,0.59897,1.123,1.4974,1.123,2.6953-0.000012,0.8659-0.26043,1.556-0.78125,2.0703-0.51433,0.51433-1.2695,0.83008-2.2656,0.94726,1.237,0.15626,2.1745,0.55339,2.8125,1.1914,0.64452,0.63151,0.96678,1.4811,0.9668,2.5488-0.000013,1.4453-0.45574,2.5098-1.3672,3.1934-0.91147,0.68359-2.334,1.0254-4.2676,1.0254h-6.7383"/>
<path d="m126.55,423.84c-0.4297,1.3607-1.1524,2.3926-2.168,3.0957-1.0091,0.69661-2.2884,1.0449-3.8379,1.0449-0.95053,0-1.8327-0.16276-2.6465-0.48828-0.81381-0.32552-1.5365-0.80404-2.168-1.4356-0.72917-0.72916-1.2728-1.556-1.6309-2.4805-0.35157-0.93098-0.52735-1.9824-0.52735-3.1543,0-2.2656,0.6543-4.0918,1.9629-5.4785,1.3086-1.3932,3.0338-2.0898,5.1758-2.0898,0.79426,0.00001,1.6406,0.10418,2.5391,0.3125,0.89842,0.20834,1.8652,0.5241,2.9004,0.94726v3.3594h-1.1035c-0.24089-1.224-0.72592-2.1256-1.4551-2.7051-0.72266-0.57941-1.7383-0.86913-3.0469-0.86914-1.556,0.00001-2.7344,0.5534-3.5352,1.6602-0.80078,1.1003-1.2012,2.7214-1.2012,4.8633,0,2.1354,0.40039,3.7565,1.2012,4.8633,0.80078,1.1003,1.9792,1.6504,3.5352,1.6504,1.0872,0,1.9824-0.25716,2.6856-0.77149,0.70311-0.52083,1.2109-1.2956,1.5234-2.3242h1.7969"/>
<path d="m147.11,426.67,1.8164,0c1.8945,0,3.3464-0.54036,4.3555-1.6211,1.0156-1.0807,1.5234-2.6302,1.5234-4.6484-0.00002-2.0182-0.50457-3.5612-1.5137-4.6289s-2.4642-1.6016-4.3652-1.6016h-1.8164v12.5m-3.8379,1.0352,0-1.0352,1.8555,0,0-12.5-1.8555,0,0-1.0449,5.8008,0c2.513,0.00001,4.4694,0.64129,5.8691,1.9238,1.4062,1.2826,2.1094,3.0664,2.1094,5.3516-0.00001,2.2917-0.70314,4.082-2.1094,5.3711s-3.3626,1.9336-5.8691,1.9336h-5.8008"/>
<path d="m174.32,427.7,0-1.0352,1.8555,0,0-12.5-1.8555,0,0-1.0449,11.738,0,0,3.2422-1.2012,0,0-2.041-6.6992,0,0,4.8828,4.7754,0,0-1.8262,1.2012,0,0,4.8438-1.2012,0,0-1.8262-4.7754,0,0,6.1035,6.8555,0,0-2.041,1.2012,0,0,3.2422-11.895,0"/>
<path d="m204.1,427.7,0-1.0352,1.8555,0,0-12.5-1.8555,0,0-1.0449,11.934,0,0,3.2422-1.2012,0,0-2.041-6.8945,0,0,4.8828,4.9805,0,0-1.8262,1.2012,0,0,4.8438-1.2012,0,0-1.8262-4.9805,0,0,6.2695,2.334,0,0,1.0352-6.1719,0"/>
<path d="m244.8,417.48c-0.22788-1.2174-0.70313-2.1159-1.4258-2.6953-0.72267-0.58592-1.7285-0.87889-3.0176-0.8789-1.6797,0.00001-2.933,0.54038-3.7598,1.6211-0.82683,1.0807-1.2402,2.7149-1.2402,4.9024,0,2.1419,0.42643,3.763,1.2793,4.8633,0.85286,1.1003,2.1061,1.6504,3.7598,1.6504,0.73566,0,1.4388-0.0912,2.1094-0.27344,0.67056-0.18229,1.3086-0.45573,1.9141-0.82031v-3.7598h-2.7441v-1.0449h4.7266v5.4394c-0.86589,0.50131-1.8001,0.87891-2.8027,1.1328-0.9961,0.24739-2.0638,0.37109-3.2031,0.37109-2.2005,0-3.9648-0.68685-5.293-2.0606-1.3216-1.3802-1.9824-3.2129-1.9824-5.498,0-2.3047,0.66407-4.1406,1.9922-5.5078,1.3281-1.3737,3.1152-2.0605,5.3613-2.0605,0.83332,0.00001,1.6927,0.0977,2.5781,0.29297,0.89191,0.18881,1.8392,0.47852,2.8418,0.86914v3.457h-1.0938"/>
<path d="m262.42,427.7,0-1.0352,1.8555,0,0-12.5-1.8555,0,0-1.0449,5.6934,0,0,1.0449-1.8555,0,0,5.0391,7.5586,0,0-5.0391-1.8555,0,0-1.0449,5.6934,0,0,1.0449-1.8555,0,0,12.5,1.8555,0,0,1.0352-5.6934,0,0-1.0352,1.8555,0,0-6.2695-7.5586,0,0,6.2695,1.8555,0,0,1.0352-5.6934,0"/>
<path d="m294.09,431.2,0-2.2949,1.1133,0c0.0195,0.64453,0.17252,1.123,0.45898,1.4356,0.28646,0.319,0.71615,0.47851,1.2891,0.47851,0.77474,0,1.3151-0.24414,1.6211-0.73242,0.30598-0.48828,0.45898-1.4421,0.45898-2.8613v-13.057h-2.2656v-1.0449h6.1035v1.0449h-1.8555v13.135c0,1.6081-0.32227,2.7702-0.96679,3.4863-0.64454,0.71615-1.683,1.0742-3.1152,1.0742-0.46224,0-0.93099-0.0553-1.4062-0.16601-0.48177-0.11068-0.96028-0.2767-1.4355-0.49805"/>
<path d="m322.99,427.7,0-1.0352,1.8555,0,0-12.5-1.8555,0,0-1.0449,5.6934,0,0,1.0449-1.8555,0,0,5.5176,6.2793-5.5176-1.582,0,0-1.0449,4.8438,0,0,1.0449-1.6406,0-6.2598,5.498,7.002,7.002,1.6602,0,0,1.0352-3.3887,0-6.9141-6.9238,0,5.8887,1.8555,0,0,1.0352-5.6934,0"/>
<path d="m352.95,427.7,0-1.0352,1.8555,0,0-12.5-1.8555,0,0-1.0449,5.6934,0,0,1.0449-1.8555,0,0,12.334,6.6602,0,0-2.4414,1.2012,0,0,3.6426-11.699,0"/>
<path d="m381.27,427.7,0-1.0352,1.8555,0,0-12.5-1.9629,0,0-1.0449,4.248,0,5.1172,10.381,5.1172-10.381,3.9844,0,0,1.0449-1.9434,0,0,12.5,1.8652,0,0,1.0352-5.7031,0,0-1.0352,1.8555,0,0-11.27-5,10.166-1.377,0-5-10.166,0,11.27,1.8555,0,0,1.0352-4.9121,0"/>
<path d="m412.19,427.7,0-1.0352,1.9629,0,0-12.5-1.9629,0,0-1.0449,3.7402,0,8.7402,11.504,0-10.459-1.9531,0,0-1.0449,5.1172,0,0,1.0449-1.9629,0,0,13.818-1.1816,0-9.3359-12.285,0,10.967,1.9629,0,0,1.0352-5.127,0"/>
<path d="m449.96,426.94c1.595,0,2.7995-0.54688,3.6133-1.6406,0.81379-1.1002,1.2207-2.7246,1.2207-4.873-0.00001-2.1549-0.40691-3.7793-1.2207-4.873-0.81382-1.1002-2.0182-1.6504-3.6133-1.6504-1.6016,0.00001-2.8092,0.55014-3.623,1.6504-0.81381,1.0938-1.2207,2.7181-1.2207,4.873-0.00001,2.1484,0.40689,3.7728,1.2207,4.873,0.8138,1.0938,2.0215,1.6406,3.623,1.6406m0,1.0449c-0.9896,0-1.901-0.16276-2.7344-0.48828-0.82683-0.32552-1.556-0.80404-2.1875-1.4356-0.72917-0.72916-1.2728-1.556-1.6309-2.4805-0.35156-0.92447-0.52734-1.9759-0.52734-3.1543s0.17578-2.2298,0.52734-3.1543c0.35807-0.93098,0.90169-1.7611,1.6309-2.4902,0.63802-0.638,1.3672-1.1165,2.1875-1.4355,0.82031-0.32551,1.7318-0.48827,2.7344-0.48828,2.1159,0.00001,3.8248,0.69337,5.127,2.0801,1.3021,1.3867,1.9531,3.2162,1.9531,5.4883-0.00001,1.1654-0.17905,2.2168-0.53711,3.1543-0.35808,0.931-0.9017,1.7578-1.6309,2.4805-0.63803,0.63802-1.3672,1.1198-2.1875,1.4453-0.82032,0.31901-1.7285,0.47852-2.7246,0.47852"/>
<path d="m478.11,420.28,2.5781,0c0.97005,0.00001,1.709-0.26041,2.2168-0.78125,0.5078-0.52733,0.76171-1.2858,0.76172-2.2754-0.00001-0.99608-0.25392-1.7545-0.76172-2.2754-0.50782-0.52082-1.2468-0.78124-2.2168-0.78125h-2.5781v6.1133m-3.8379,7.4219,0-1.0352,1.8555,0,0-12.5-1.8555,0,0-1.0449,6.8945,0c1.4583,0.00001,2.6139,0.37111,3.4668,1.1133,0.85286,0.73569,1.2793,1.7318,1.2793,2.9883-0.00001,1.25-0.42644,2.2461-1.2793,2.9883-0.85287,0.7422-2.0085,1.1133-3.4668,1.1133h-3.0566v5.3418h2.2559v1.0352h-6.0938"/>
<path d="m510.21,427.99c-2.2331,0-4.0104-0.68359-5.332-2.0508-1.3216-1.3737-1.9824-3.2096-1.9824-5.5078,0-1.1784,0.17578-2.2298,0.52735-3.1543,0.35807-0.93098,0.90169-1.7611,1.6309-2.4902,0.63801-0.638,1.3672-1.1165,2.1875-1.4355,0.8203-0.32551,1.7318-0.48827,2.7344-0.48828,2.1159,0.00001,3.8249,0.69337,5.127,2.0801s1.9531,3.2162,1.9531,5.4883c-0.00002,1.9271-0.4883,3.5482-1.4648,4.8633-0.97658,1.3086-2.3242,2.1517-4.043,2.5293,0.35155,0.4362,0.77798,0.75847,1.2793,0.9668,0.50781,0.20833,1.1165,0.3125,1.8262,0.3125h0.30273v1.8066c-1.1003-0.0521-2.0443-0.32227-2.832-0.81055-0.78126-0.48177-1.4193-1.1849-1.9141-2.1094m-0.23438-1.0449c1.595,0,2.7995-0.54688,3.6133-1.6406,0.81379-1.1002,1.2207-2.7246,1.2207-4.873-0.00002-2.1549-0.40692-3.7793-1.2207-4.873-0.81381-1.1002-2.0182-1.6504-3.6133-1.6504-1.6016,0.00001-2.8092,0.55014-3.623,1.6504-0.81381,1.0938-1.2207,2.7181-1.2207,4.873,0,2.1484,0.4069,3.7728,1.2207,4.873,0.81379,1.0938,2.0215,1.6406,3.623,1.6406"/>
<path d="m542.59,420.47c0.45572,0.1237,0.84634,0.33529,1.1719,0.63476,0.33202,0.29298,0.62825,0.70639,0.88868,1.2402l2.1191,4.3262h1.7773v1.0352h-3.4375l-2.2754-4.6387c-0.43621-0.89843-0.8366-1.4778-1.2012-1.7383-0.36459-0.26692-0.86589-0.40038-1.5039-0.40039h-2.1777v5.7422h2.0605v1.0352h-5.8984v-1.0352h1.8555v-12.5h-1.8555v-1.0449h7.3926c1.4193,0.00001,2.513,0.33855,3.2812,1.0156,0.77472,0.6771,1.1621,1.6374,1.1621,2.8809-0.00001,1.0026-0.28321,1.7936-0.8496,2.373-0.55991,0.57292-1.3965,0.931-2.5098,1.0742m-4.6387-0.58594,2.8809,0c0.98306,0.00001,1.709-0.23111,2.1777-0.69336,0.46874-0.46874,0.70312-1.1914,0.70313-2.168-0.00001-0.97655-0.23439-1.696-0.70313-2.1582-0.46876-0.46223-1.1947-0.69335-2.1777-0.69336h-2.8809v5.7129"/>
<path d="m565.02,427,0-3.3203,1.123,0.01c0.0325,1.1068,0.35155,1.9271,0.95703,2.4609,0.61197,0.52735,1.5397,0.79102,2.7832,0.79102,1.1588,0,2.041-0.22787,2.6465-0.6836,0.61197-0.46223,0.91796-1.1328,0.91797-2.0117-0.00001-0.70313-0.18555-1.2435-0.55664-1.6211-0.36459-0.3776-1.1393-0.74544-2.3242-1.1035l-1.9238-0.57618c-1.3932-0.42317-2.3763-0.95051-2.9492-1.582-0.56641-0.6315-0.84961-1.4974-0.84961-2.5976,0-1.237,0.43945-2.1973,1.3184-2.8809,0.8789-0.68358,2.1126-1.0254,3.7012-1.0254,0.67707,0.00001,1.4193,0.0749,2.2266,0.22461,0.80728,0.14324,1.6667,0.35483,2.5781,0.63476v3.1055h-1.1035c-0.11069-1.0286-0.45574-1.7708-1.0352-2.2266-0.57292-0.46223-1.4486-0.69335-2.627-0.69336-1.0286,0.00001-1.8132,0.2116-2.3535,0.63476-0.53386,0.41668-0.80079,1.0254-0.80079,1.8262,0,0.69662,0.20182,1.2435,0.60547,1.6406,0.40364,0.39715,1.2598,0.79103,2.5684,1.1816l1.8066,0.53711c1.3216,0.39714,2.2624,0.90496,2.8223,1.5234,0.56639,0.61198,0.8496,1.4356,0.84961,2.4707-0.00001,1.4128-0.45249,2.4772-1.3574,3.1934-0.90496,0.71615-2.2526,1.0742-4.043,1.0742-0.80079,0-1.6178-0.0814-2.4512-0.24414-0.82683-0.16276-1.6699-0.41016-2.5293-0.74219"/>
<path d="m597.06,427.7,0-1.0352,1.8652,0,0-12.383-4.2871,0,0,2.2754-1.2012,0,0-3.4375,12.949,0,0,3.4375-1.2012,0,0-2.2754-4.2871,0,0,12.383,1.8652,0,0,1.0352-5.7031,0"/>
</g>
<g style="letter-spacing:-2px;word-spacing:0px;" font-weight="normal" font-size="20px" font-style="normal" font-stretch="normal" line-height="150.19999743%" font-variant="normal" font-family="Serif" fill="#000">
<path style="" d="m19.842,458.8,0-1.0352,2.5391,0,0-12.129-2.9395,1.9043,0-1.2793,3.5547-2.3047,1.3477,0,0,13.809,2.5391,0,0,1.0352-7.041,0"/>
<path style="" d="m37.09,452.27c-0.43621,0.48829-0.93751,0.85287-1.5039,1.0938-0.56641,0.24089-1.2044,0.36133-1.9141,0.36133-1.4453,0-2.5879-0.43619-3.4277-1.3086-0.83334-0.87238-1.25-2.0638-1.25-3.5742-0.000002-1.4779,0.45247-2.6595,1.3574-3.5449,0.91146-0.89191,2.1256-1.3379,3.6426-1.3379,1.6471,0.00002,2.9101,0.61525,3.7891,1.8457,0.88541,1.224,1.3281,2.9753,1.3281,5.2539-0.000011,2.5521-0.5241,4.528-1.5723,5.9277s-2.5228,2.0996-4.4238,2.0996c-0.51433,0-1.0547-0.0488-1.6211-0.14649-0.56641-0.0976-1.1458-0.24414-1.7383-0.43945v-2.4219h1.0938c0.08463,0.65756,0.33854,1.1621,0.76172,1.5137,0.42317,0.35156,0.98958,0.52734,1.6992,0.52734,1.263,0,2.2038-0.47526,2.8223-1.4258,0.61848-0.95703,0.93749-2.4316,0.95703-4.4238m-3.1738-7.3438c-0.92448,0.00001-1.6341,0.33855-2.1289,1.0156-0.48828,0.67059-0.73242,1.6374-0.73242,2.9004-0.000003,1.263,0.24414,2.2331,0.73242,2.9102,0.49479,0.67709,1.2044,1.0156,2.1289,1.0156,0.92447,0,1.6309-0.32552,2.1191-0.97657,0.49478-0.65754,0.74218-1.6016,0.74219-2.832-0.000009-1.2956-0.2474-2.2916-0.74219-2.9883-0.4948-0.6966-1.2012-1.0449-2.1191-1.0449"/>
<path style="" d="m19.842,488.84,0-1.0352,2.5391,0,0-12.129-2.9395,1.9043,0-1.2793,3.5547-2.3047,1.3477,0,0,13.809,2.5391,0,0,1.0352-7.041,0"/>
<path style="" d="m37.051,484.86c-0.000009-1.0417-0.26042-1.849-0.78125-2.4219-0.51433-0.57942-1.2402-0.86913-2.1777-0.86914-0.93751,0.00001-1.6667,0.28972-2.1875,0.86914-0.51433,0.57292-0.77149,1.3802-0.77148,2.4219-0.000003,1.0482,0.25716,1.862,0.77148,2.4414,0.52083,0.57292,1.25,0.85938,2.1875,0.85938,0.93749,0,1.6634-0.28646,2.1777-0.85938,0.52082-0.57942,0.78124-1.3932,0.78125-2.4414m-0.40039-7.0801c-0.000009-0.88541-0.22462-1.5755-0.67383-2.0703-0.44923-0.49478-1.0775-0.74218-1.8848-0.74219-0.80079,0.00001-1.429,0.24741-1.8848,0.74219-0.44922,0.4948-0.67383,1.1849-0.67383,2.0703-0.000004,0.89194,0.2246,1.5853,0.67383,2.0801,0.45572,0.4948,1.084,0.74219,1.8848,0.74218,0.80728,0.00001,1.4355-0.24738,1.8848-0.74218,0.44921-0.49479,0.67382-1.1881,0.67383-2.0801m-1.0547,3.3008c1.1068,0.14975,1.9694,0.5599,2.5879,1.2305,0.61848,0.66407,0.92772,1.5137,0.92773,2.5488-0.000011,1.3672-0.43295,2.4219-1.2988,3.1641-0.8659,0.73568-2.1061,1.1035-3.7207,1.1035-1.6081-0.00001-2.8483-0.36784-3.7207-1.1035-0.86589-0.74219-1.2988-1.7969-1.2988-3.1641-0.000002-1.0352,0.30924-1.8848,0.92773-2.5488,0.61849-0.67057,1.4844-1.0807,2.5977-1.2305-0.98308-0.17577-1.7383-0.54687-2.2656-1.1133-0.52084-0.57291-0.78125-1.3021-0.78125-2.1875-0.000002-1.1719,0.40364-2.0931,1.2109-2.7637,0.80729-0.67707,1.9173-1.0156,3.3301-1.0156,1.4128,0.00002,2.5228,0.33856,3.3301,1.0156,0.80728,0.67058,1.2109,1.5918,1.2109,2.7637-0.00001,0.88543-0.26368,1.6146-0.79102,2.1875-0.52084,0.56641-1.2695,0.93751-2.2461,1.1133"/>
<path style="" d="m19.842,518.88,0-1.0352,2.5391,0,0-12.129-2.9395,1.9043,0-1.2793,3.5547-2.3047,1.3477,0,0,13.809,2.5391,0,0,1.0352-7.041,0"/>
<path style="" d="m39.014,505.3-5.7031,13.584-1.4551,0,5.4395-12.979-6.7383,0,0,1.7969-1.1426,0,0-3.3984,9.5996,0,0,0.9961"/>
<path style="" d="m19.842,548.92,0-1.0352,2.5391,0,0-12.129-2.9395,1.9043,0-1.2793,3.5547-2.3047,1.3477,0,0,13.809,2.5391,0,0,1.0352-7.041,0"/>
<path style="" d="m34.277,548.24c0.91796,0,1.6243-0.33529,2.1191-1.0059,0.49478-0.67708,0.74218-1.6471,0.74219-2.9102-0.00001-1.263-0.2474-2.2298-0.74219-2.9004-0.4948-0.67707-1.2012-1.0156-2.1191-1.0156-0.931,0-1.6406,0.32553-2.1289,0.97656-0.48828,0.65105-0.73242,1.5918-0.73242,2.8223-0.000004,1.2956,0.24739,2.2917,0.74219,2.9883,0.49479,0.69661,1.2012,1.0449,2.1191,1.0449m-3.1836-7.3438c0.4427-0.48828,0.94401-0.85286,1.5039-1.0938,0.55989-0.24088,1.1914-0.36132,1.8945-0.36133,1.4518,0.00001,2.5976,0.43621,3.4375,1.3086,0.84634,0.87241,1.2695,2.0638,1.2695,3.5742-0.000012,1.4779-0.45574,2.6628-1.3672,3.5547-0.90496,0.88542-2.1159,1.3281-3.6328,1.3281-1.6471,0-2.9134-0.61197-3.7988-1.8359-0.88542-1.2305-1.3281-2.985-1.3281-5.2637-0.000002-2.5521,0.52409-4.528,1.5723-5.9277s2.526-2.0996,4.4336-2.0996c0.51432,0.00002,1.0547,0.0488,1.6211,0.14649,0.5664,0.0977,1.1458,0.24415,1.7383,0.43945v2.4023h-1.1035c-0.07813-0.65754-0.32878-1.1588-0.75195-1.5039-0.42318-0.34504-0.99285-0.51757-1.709-0.51758-1.263,0.00001-2.2038,0.47853-2.8223,1.4355-0.61849,0.95705-0.9375,2.4284-0.95703,4.4141"/>
<path style="" d="m19.842,578.96,0-1.0352,2.5391,0,0-12.129-2.9395,1.9043,0-1.2793,3.5547-2.3047,1.3477,0,0,13.809,2.5391,0,0,1.0352-7.041,0"/>
<path style="" d="m37.793,564.38,0,1.6016-6.6797,0,0,4.1797c0.33854-0.23436,0.73242-0.41014,1.1816-0.52734,0.45572-0.11718,0.96354-0.17577,1.5234-0.17578,1.5755,0.00001,2.819,0.4362,3.7305,1.3086,0.91145,0.8724,1.3672,2.0638,1.3672,3.5742-0.000012,1.543-0.46225,2.7474-1.3867,3.6133-0.91798,0.85938-2.2103,1.2891-3.877,1.2891-0.67058,0-1.3574-0.0814-2.0605-0.24414-0.70313-0.16276-1.4225-0.41015-2.1582-0.74218v-2.832h1.1035c0.05859,0.92449,0.35156,1.6309,0.87891,2.1191,0.53385,0.48829,1.2793,0.73243,2.2363,0.73243,1.0286,0,1.8197-0.33854,2.373-1.0156,0.55338-0.67708,0.83007-1.6504,0.83008-2.9199-0.000009-1.263-0.2767-2.2298-0.83008-2.9004-0.54688-0.67708-1.3379-1.0156-2.373-1.0156-0.58594,0.00001-1.1035,0.10418-1.5527,0.3125-0.44271,0.20835-0.83659,0.53061-1.1816,0.9668h-0.83984v-7.3242h7.7148"/>
<path style="" d="m19.842,609,0-1.0352,2.5391,0,0-12.129-2.9395,1.9043,0-1.2793,3.5547-2.3047,1.3477,0,0,13.809,2.5391,0,0,1.0352-7.041,0"/>
<path style="" d="m34.717,604.06,0-7.7539-4.9805,7.7539,4.9805,0m4.2969,4.9414-6.6406,0,0-1.0352,2.3438,0,0-2.8613-6.3672,0,0-1.0645,6.3867-9.8828,1.9336,0,0,9.9023,2.7832,0,0,1.0449-2.7832,0,0,2.8613,2.3438,0,0,1.0352"/>
<path style="" d="m19.842,639.04,0-1.0352,2.5391,0,0-12.129-2.9395,1.9043,0-1.2793,3.5547-2.3047,1.3477,0,0,13.809,2.5391,0,0,1.0352-7.041,0"/>
<path style="" d="m29.678,625.08c0.76172-0.28645,1.4909-0.50455,2.1875-0.6543,0.70312-0.14973,1.3607-0.2246,1.9727-0.22461,1.4258,0.00001,2.5391,0.30926,3.3398,0.92773,0.80077,0.612,1.2012,1.4649,1.2012,2.5586-0.00001,0.87891-0.2767,1.6146-0.83008,2.207-0.5534,0.58595-1.3379,0.98308-2.3535,1.1914,1.1979,0.16927,2.1256,0.60547,2.7832,1.3086,0.66405,0.69662,0.99608,1.6016,0.99609,2.7148-0.000011,1.3607-0.459,2.4056-1.377,3.1348-0.91147,0.72265-2.2266,1.084-3.9453,1.084-0.76172,0-1.5072-0.0814-2.2363-0.24414-0.72266-0.16276-1.4421-0.41015-2.1582-0.74219v-2.832h1.0938c0.0651,0.93751,0.38086,1.6471,0.94727,2.1289,0.5664,0.48177,1.3639,0.72266,2.3926,0.72266,0.99609,0,1.7806-0.28646,2.3535-0.85938,0.57942-0.57942,0.86913-1.3704,0.86914-2.373-0.000009-1.1458-0.29623-2.0117-0.88867-2.5976-0.59246-0.59244-1.4616-0.88867-2.6074-0.88867h-0.92774v-0.9961h0.48828c1.1393,0.00001,1.9922-0.23436,2.5586-0.70312,0.57291-0.47525,0.85937-1.1881,0.85938-2.1387-0.000008-0.85286-0.23438-1.5039-0.70312-1.9531-0.46876-0.45572-1.1426-0.68358-2.0215-0.68359-0.87891,0.00001-1.5625,0.20834-2.0508,0.625-0.48177,0.41668-0.76498,1.0352-0.84961,1.8555h-1.0938v-2.5684"/>
<path style="" d="m19.842,669.08,0-1.0352,2.5391,0,0-12.129-2.9395,1.9043,0-1.2793,3.5547-2.3047,1.3477,0,0,13.809,2.5391,0,0,1.0352-7.041,0"/>
<path style="" d="m30.293,657.98-1.0938,0,0-2.5976c0.69661-0.37108,1.3965-0.65429,2.0996-0.84961,0.70963-0.1953,1.403-0.29296,2.0801-0.29297,1.5169,0.00001,2.7148,0.36785,3.5938,1.1035,0.8789,0.73569,1.3183,1.735,1.3184,2.998-0.000011,1.4258-0.9961,3.1315-2.9883,5.1172-0.15626,0.14974-0.27344,0.26368-0.35156,0.3418l-3.6816,3.6816h6.084v-1.7969h1.1426v3.3984h-9.4043v-1.0644l4.4238-4.4141c0.97656-0.97655,1.6732-1.8717,2.0898-2.6855,0.41666-0.82031,0.62499-1.6797,0.625-2.5781-0.000009-0.98306-0.25717-1.7513-0.77148-2.3047-0.50782-0.55337-1.2109-0.83006-2.1094-0.83007-0.93099,0.00001-1.6504,0.23113-2.1582,0.69336-0.50782,0.46225-0.80729,1.1556-0.89844,2.0801"/>
<path style="" d="m19.842,699.12,0-1.0352,2.5391,0,0-12.129-2.9395,1.9043,0-1.2793,3.5547-2.3047,1.3477,0,0,13.809,2.5391,0,0,1.0352-7.041,0"/>
<path style="" d="m30.576,699.12,0-1.0352,2.5391,0,0-12.129-2.9395,1.9043,0-1.2793,3.5547-2.3047,1.3477,0,0,13.809,2.5391,0,0,1.0352-7.041,0"/>
<path style="" d="m19.842,729.16,0-1.0352,2.5391,0,0-12.129-2.9395,1.9043,0-1.2793,3.5547-2.3047,1.3477,0,0,13.809,2.5391,0,0,1.0352-7.041,0"/>
<path style="" d="m34.092,728.48c0.99609,0,1.7415-0.54687,2.2363-1.6406,0.49478-1.0938,0.74218-2.7441,0.74219-4.9512-0.000009-2.2135-0.2474-3.8672-0.74219-4.9609-0.4948-1.0937-1.2402-1.6406-2.2363-1.6406-0.9961,0.00002-1.7415,0.54689-2.2363,1.6406-0.4948,1.0938-0.74219,2.7474-0.74219,4.9609-0.000003,2.207,0.24739,3.8574,0.74219,4.9512,0.49479,1.0938,1.2402,1.6406,2.2363,1.6406m0,0.9668c-1.582,0-2.819-0.66406-3.7109-1.9922-0.88542-1.3281-1.3281-3.1836-1.3281-5.5664-0.000001-2.3893,0.44271-4.248,1.3281-5.5762,0.89192-1.3281,2.1289-1.9922,3.7109-1.9922,1.5885,0.00001,2.8255,0.66407,3.7109,1.9922,0.88541,1.3281,1.3281,3.1868,1.3281,5.5762-0.000011,2.3828-0.44272,4.2383-1.3281,5.5664-0.88542,1.3281-2.1224,1.9922-3.7109,1.9922"/>
<path style="" d="m30.723,752.67c-0.43621,0.48829-0.93751,0.85287-1.5039,1.0938-0.56641,0.24089-1.2044,0.36134-1.9141,0.36133-1.4453,0.00001-2.5879-0.43619-3.4277-1.3086-0.83334-0.87239-1.25-2.0638-1.25-3.5742-0.000001-1.4778,0.45247-2.6595,1.3574-3.5449,0.91146-0.89191,2.1256-1.3379,3.6426-1.3379,1.6471,0.00001,2.9101,0.61525,3.7891,1.8457,0.8854,1.224,1.3281,2.9753,1.3281,5.2539-0.000012,2.5521-0.5241,4.528-1.5723,5.9277s-2.5228,2.0996-4.4238,2.0996c-0.51433,0-1.0547-0.0488-1.6211-0.14648-0.56641-0.0977-1.1458-0.24414-1.7383-0.43946v-2.4219h1.0938c0.08463,0.65755,0.33854,1.1621,0.76172,1.5137,0.42317,0.35156,0.98958,0.52734,1.6992,0.52734,1.263,0,2.2038-0.47526,2.8223-1.4258,0.61848-0.95703,0.93749-2.4316,0.95703-4.4238m-3.1738-7.3438c-0.92448,0.00002-1.6341,0.33856-2.1289,1.0156-0.48828,0.67058-0.73242,1.6374-0.73242,2.9004-0.000003,1.263,0.24414,2.2331,0.73242,2.9102,0.49479,0.67709,1.2044,1.0156,2.1289,1.0156,0.92447,0.00001,1.6309-0.32551,2.1191-0.97656,0.49478-0.65755,0.74218-1.6016,0.74219-2.832-0.000009-1.2956-0.2474-2.2917-0.74219-2.9883-0.4948-0.6966-1.2012-1.0449-2.1191-1.0449"/>
<path style="" d="m30.684,785.26c-0.00001-1.0417-0.26043-1.849-0.78125-2.4219-0.51433-0.57942-1.2402-0.86914-2.1777-0.86914s-1.6667,0.28972-2.1875,0.86914c-0.51433,0.57292-0.77149,1.3802-0.77148,2.4219-0.000003,1.0482,0.25716,1.862,0.77148,2.4414,0.52083,0.57292,1.25,0.85937,2.1875,0.85937,0.93749,0,1.6634-0.28645,2.1777-0.85937,0.52082-0.57943,0.78124-1.3932,0.78125-2.4414m-0.40039-7.0801c-0.000009-0.8854-0.22462-1.5755-0.67383-2.0703-0.44923-0.49478-1.0775-0.74217-1.8848-0.74219-0.80079,0.00002-1.429,0.24741-1.8848,0.74219-0.44922,0.49481-0.67383,1.1849-0.67383,2.0703-0.000004,0.89194,0.2246,1.5853,0.67383,2.0801,0.45572,0.4948,1.084,0.7422,1.8848,0.74219,0.80728,0.00001,1.4355-0.24739,1.8848-0.74219,0.44921-0.49478,0.67382-1.1881,0.67383-2.0801m-1.0547,3.3008c1.1068,0.14974,1.9694,0.5599,2.5879,1.2305,0.61848,0.66407,0.92772,1.5137,0.92774,2.5488-0.000012,1.3672-0.43295,2.4219-1.2988,3.1641-0.86589,0.73568-2.1061,1.1035-3.7207,1.1035-1.6081,0-2.8483-0.36784-3.7207-1.1035-0.86589-0.74218-1.2988-1.7969-1.2988-3.1641-0.000001-1.0352,0.30924-1.8848,0.92773-2.5488,0.61849-0.67056,1.4844-1.0807,2.5977-1.2305-0.98308-0.17578-1.7383-0.54687-2.2656-1.1133-0.52084-0.5729-0.78125-1.3021-0.78125-2.1875-0.000002-1.1719,0.40364-2.0931,1.2109-2.7637,0.80729-0.67707,1.9173-1.0156,3.3301-1.0156,1.4128,0.00001,2.5228,0.33855,3.3301,1.0156,0.80728,0.67059,1.2109,1.5918,1.2109,2.7637-0.000011,0.88543-0.26368,1.6146-0.79102,2.1875-0.52084,0.56642-1.2695,0.93751-2.2461,1.1133"/>
<path style="" d="m32.646,805.7-5.7031,13.584-1.4551,0,5.4395-12.979-6.7383,0,0,1.7969-1.1426,0,0-3.3984,9.5996,0,0,0.99609"/>
<path style="" d="m27.91,848.64c0.91796,0,1.6243-0.33528,2.1191-1.0059,0.49478-0.67708,0.74218-1.6471,0.74219-2.9102-0.000009-1.263-0.2474-2.2298-0.74219-2.9004-0.4948-0.67708-1.2012-1.0156-2.1191-1.0156-0.931,0.00001-1.6406,0.32553-2.1289,0.97656-0.48828,0.65105-0.73243,1.5918-0.73242,2.8223-0.000004,1.2956,0.24739,2.2917,0.74219,2.9883,0.49479,0.69662,1.2012,1.0449,2.1191,1.0449m-3.1836-7.3438c0.4427-0.48827,0.94401-0.85285,1.5039-1.0938,0.55989-0.24087,1.1914-0.36132,1.8945-0.36133,1.4518,0.00001,2.5976,0.43621,3.4375,1.3086,0.84634,0.8724,1.2695,2.0638,1.2695,3.5742-0.000011,1.4779-0.45574,2.6628-1.3672,3.5547-0.90496,0.88542-2.1159,1.3281-3.6328,1.3281-1.6471,0-2.9134-0.61198-3.7988-1.8359-0.88542-1.2305-1.3281-2.985-1.3281-5.2637-0.000001-2.5521,0.52409-4.528,1.5723-5.9277s2.526-2.0996,4.4336-2.0996c0.51432,0.00001,1.0547,0.0488,1.6211,0.14648,0.5664,0.0977,1.1458,0.24416,1.7383,0.43945v2.4024h-1.1035c-0.07813-0.65754-0.32878-1.1588-0.75195-1.5039-0.42319-0.34504-0.99285-0.51756-1.709-0.51758-1.263,0.00002-2.2038,0.47853-2.8223,1.4356-0.61849,0.95704-0.9375,2.4284-0.95703,4.4141"/>
<path style="" d="m31.426,864.78,0,1.6016-6.6797,0,0,4.1797c0.33854-0.23437,0.73242-0.41015,1.1816-0.52735,0.45572-0.11717,0.96354-0.17577,1.5234-0.17578,1.5755,0.00001,2.819,0.43621,3.7305,1.3086,0.91145,0.8724,1.3672,2.0638,1.3672,3.5742-0.000011,1.543-0.46225,2.7474-1.3867,3.6133-0.91798,0.85937-2.2103,1.2891-3.877,1.2891-0.67058,0-1.3574-0.0814-2.0605-0.24414-0.70313-0.16276-1.4225-0.41016-2.1582-0.74219v-2.832h1.1035c0.05859,0.92448,0.35156,1.6309,0.87891,2.1191,0.53385,0.48828,1.2793,0.73242,2.2363,0.73242,1.0286,0,1.8197-0.33854,2.373-1.0156,0.55338-0.67708,0.83007-1.6504,0.83008-2.9199-0.000009-1.263-0.2767-2.2298-0.83008-2.9004-0.54688-0.67707-1.3379-1.0156-2.373-1.0156-0.58594,0.00001-1.1035,0.10417-1.5527,0.3125-0.44271,0.20834-0.83659,0.53061-1.1816,0.9668h-0.83984v-7.3242h7.7148"/>
<path style="" d="m28.35,904.46,0-7.7539-4.9805,7.7539,4.9805,0m4.2969,4.9414-6.6406,0,0-1.0352,2.3438,0,0-2.8613-6.3672,0,0-1.0644,6.3867-9.8828,1.9336,0,0,9.9024,2.7832,0,0,1.0449-2.7832,0,0,2.8613,2.3438,0,0,1.0352"/>
<path style="" d="m23.311,925.48c0.76172-0.28644,1.4909-0.50454,2.1875-0.6543,0.70312-0.14972,1.3607-0.22459,1.9727-0.22461,1.4258,0.00002,2.5391,0.30926,3.3398,0.92774,0.80077,0.61199,1.2012,1.4648,1.2012,2.5586-0.000011,0.87892-0.2767,1.6146-0.83008,2.207-0.5534,0.58595-1.3379,0.98308-2.3535,1.1914,1.1979,0.16928,2.1256,0.60548,2.7832,1.3086,0.66405,0.69662,0.99608,1.6016,0.99609,2.7148-0.000011,1.3607-0.459,2.4056-1.377,3.1348-0.91147,0.72266-2.2266,1.084-3.9453,1.084-0.76172,0-1.5072-0.0814-2.2363-0.24414-0.72266-0.16276-1.4421-0.41016-2.1582-0.74219v-2.832h1.0938c0.0651,0.9375,0.38086,1.6471,0.94727,2.1289,0.5664,0.48178,1.3639,0.72266,2.3926,0.72266,0.99609,0,1.7806-0.28646,2.3535-0.85937,0.57942-0.57943,0.86913-1.3704,0.86914-2.373-0.000009-1.1458-0.29623-2.0117-0.88867-2.5977-0.59246-0.59244-1.4616-0.88866-2.6074-0.88867h-0.92773v-0.99609h0.48828c1.1393,0.00001,1.9922-0.23437,2.5586-0.70313,0.57291-0.47525,0.85937-1.1881,0.85938-2.1387-0.000009-0.85285-0.23438-1.5039-0.70312-1.9531-0.46876-0.45572-1.1426-0.68358-2.0215-0.6836-0.87891,0.00002-1.5625,0.20835-2.0508,0.625-0.48177,0.41668-0.76498,1.0352-0.84961,1.8555h-1.0938v-2.5684"/>
<path style="" d="m23.926,958.38-1.0938,0,0-2.5977c0.69661-0.37108,1.3965-0.65428,2.0996-0.84961,0.70963-0.1953,1.403-0.29295,2.0801-0.29297,1.5169,0.00002,2.7148,0.36786,3.5938,1.1035,0.8789,0.73569,1.3183,1.735,1.3184,2.998-0.00001,1.4258-0.9961,3.1315-2.9883,5.1172-0.15626,0.14975-0.27344,0.26368-0.35156,0.3418l-3.6816,3.6816h6.084v-1.7969h1.1426v3.3984h-9.4043v-1.0644l4.4238-4.4141c0.97656-0.97656,1.6732-1.8717,2.0898-2.6856,0.41666-0.8203,0.62499-1.6797,0.625-2.5781-0.000008-0.98306-0.25717-1.7513-0.77148-2.3047-0.50782-0.55337-1.2109-0.83007-2.1094-0.83008-0.93099,0.00001-1.6504,0.23113-2.1582,0.69336-0.50782,0.46225-0.8073,1.1556-0.89844,2.0801"/>
<path style="" d="m24.209,999.52,0-1.0352,2.5391,0,0-12.129-2.9395,1.9043,0-1.2793,3.5547-2.3047,1.3477,0,0,13.809,2.5391,0,0,1.0352-7.041,0"/>
</g>
<g style="letter-spacing:-2px;word-spacing:0px;" font-weight="normal" font-size="20px" font-style="normal" font-stretch="normal" line-height="150.19999743%" font-variant="normal" font-family="Serif" fill="#000">
<path style="" d="m621.39,458.8,0-1.0352,2.5391,0,0-12.129-2.9395,1.9043,0-1.2793,3.5547-2.3047,1.3477,0,0,13.809,2.5391,0,0,1.0352-7.041,0"/>
<path style="" d="m638.64,452.27c-0.43621,0.48829-0.93751,0.85287-1.5039,1.0938-0.56641,0.24089-1.2044,0.36133-1.9141,0.36133-1.4453,0-2.5879-0.4362-3.4277-1.3086-0.83334-0.87239-1.25-2.0638-1.25-3.5742,0-1.4778,0.45247-2.6595,1.3574-3.5449,0.91145-0.89191,2.1256-1.3379,3.6426-1.3379,1.6471,0.00002,2.9101,0.61525,3.7891,1.8457,0.88541,1.224,1.3281,2.9753,1.3281,5.2539-0.00002,2.5521-0.5241,4.528-1.5723,5.9277s-2.5228,2.0996-4.4238,2.0996c-0.51433-0.00001-1.0547-0.0488-1.6211-0.14649-0.56641-0.0977-1.1458-0.24414-1.7383-0.43945v-2.4219h1.0938c0.0846,0.65756,0.33853,1.1621,0.76172,1.5137,0.42317,0.35157,0.98957,0.52735,1.6992,0.52735,1.263,0,2.2038-0.47526,2.8223-1.4258,0.61848-0.95703,0.93749-2.4316,0.95703-4.4238m-3.1738-7.3438c-0.92448,0.00001-1.6341,0.33855-2.1289,1.0156-0.48829,0.67059-0.73243,1.6374-0.73243,2.9004s0.24414,2.2331,0.73243,2.9102c0.49478,0.67709,1.2044,1.0156,2.1289,1.0156,0.92447,0,1.6308-0.32552,2.1191-0.97657,0.49479-0.65754,0.74218-1.6016,0.74219-2.832-0.00001-1.2956-0.2474-2.2916-0.74219-2.9883-0.4948-0.6966-1.2012-1.0449-2.1191-1.0449"/>
<path style="" d="m621.39,488.84,0-1.0352,2.5391,0,0-12.129-2.9395,1.9043,0-1.2793,3.5547-2.3047,1.3477,0,0,13.809,2.5391,0,0,1.0352-7.041,0"/>
<path style="" d="m638.6,484.86c-0.00001-1.0417-0.26043-1.849-0.78125-2.4219-0.51433-0.57942-1.2402-0.86913-2.1777-0.86914-0.9375,0.00001-1.6667,0.28972-2.1875,0.86914-0.51432,0.57292-0.77148,1.3802-0.77148,2.4219,0,1.0482,0.25716,1.862,0.77148,2.4414,0.52083,0.57292,1.25,0.85938,2.1875,0.85938s1.6634-0.28646,2.1777-0.85938c0.52082-0.57942,0.78124-1.3932,0.78125-2.4414m-0.40039-7.0801c-0.00001-0.88541-0.22462-1.5755-0.67383-2.0703-0.44923-0.49478-1.0775-0.74218-1.8848-0.74219-0.80078,0.00001-1.429,0.24741-1.8848,0.74219-0.44922,0.4948-0.67383,1.1849-0.67383,2.0703,0,0.89194,0.22461,1.5853,0.67383,2.0801,0.45572,0.4948,1.084,0.74219,1.8848,0.74218,0.80729,0.00001,1.4355-0.24738,1.8848-0.74218,0.44921-0.49479,0.67382-1.1881,0.67383-2.0801m-1.0547,3.3008c1.1068,0.14975,1.9694,0.5599,2.5879,1.2305,0.61848,0.66407,0.92772,1.5137,0.92774,2.5488-0.00002,1.3672-0.43296,2.4219-1.2988,3.1641-0.8659,0.73568-2.1061,1.1035-3.7207,1.1035-1.6081,0-2.8483-0.36783-3.7207-1.1035-0.86589-0.74219-1.2988-1.7969-1.2988-3.1641,0-1.0352,0.30925-1.8848,0.92774-2.5488,0.61848-0.67057,1.4844-1.0807,2.5976-1.2305-0.98307-0.17577-1.7383-0.54687-2.2656-1.1133-0.52084-0.57291-0.78125-1.3021-0.78125-2.1875,0-1.1719,0.40364-2.0931,1.2109-2.7637,0.80728-0.67707,1.9173-1.0156,3.3301-1.0156,1.4128,0.00002,2.5228,0.33856,3.3301,1.0156,0.80728,0.67058,1.2109,1.5918,1.2109,2.7637-0.00001,0.88543-0.26368,1.6146-0.79102,2.1875-0.52084,0.56641-1.2695,0.93751-2.2461,1.1133"/>
<path style="" d="m621.39,518.88,0-1.0352,2.5391,0,0-12.129-2.9395,1.9043,0-1.2793,3.5547-2.3047,1.3477,0,0,13.809,2.5391,0,0,1.0352-7.041,0"/>
<path style="" d="m640.56,505.3-5.7031,13.584-1.4551,0,5.4394-12.979-6.7383,0,0,1.7969-1.1426,0,0-3.3984,9.5996,0,0,0.9961"/>
<path style="" d="m621.39,548.92,0-1.0352,2.5391,0,0-12.129-2.9395,1.9043,0-1.2793,3.5547-2.3047,1.3477,0,0,13.809,2.5391,0,0,1.0352-7.041,0"/>
<path style="" d="m635.82,548.24c0.91796,0,1.6243-0.33529,2.1191-1.0059,0.49478-0.67708,0.74218-1.6471,0.74219-2.9102-0.00001-1.263-0.24741-2.2298-0.74219-2.9004-0.4948-0.67707-1.2012-1.0156-2.1191-1.0156-0.93099,0-1.6406,0.32552-2.1289,0.97656-0.48828,0.65105-0.73242,1.5918-0.73242,2.8223,0,1.2956,0.24739,2.2917,0.74219,2.9883,0.49479,0.69662,1.2012,1.0449,2.1191,1.0449m-3.1836-7.3438c0.4427-0.48828,0.944-0.85286,1.5039-1.0938,0.55989-0.24088,1.1914-0.36132,1.8945-0.36133,1.4518,0.00001,2.5976,0.43621,3.4375,1.3086,0.84635,0.87241,1.2695,2.0638,1.2695,3.5742-0.00002,1.4779-0.45574,2.6628-1.3672,3.5547-0.90496,0.88542-2.1159,1.3281-3.6328,1.3281-1.6471,0-2.9134-0.61198-3.7988-1.8359-0.88542-1.2305-1.3281-2.985-1.3281-5.2637,0-2.5521,0.52409-4.528,1.5723-5.9277s2.526-2.0996,4.4336-2.0996c0.51432,0.00002,1.0547,0.0488,1.6211,0.14648,0.56639,0.0977,1.1458,0.24416,1.7383,0.43946v2.4023h-1.1035c-0.0781-0.65754-0.32878-1.1588-0.75195-1.5039-0.42319-0.34504-0.99285-0.51757-1.709-0.51758-1.263,0.00001-2.2038,0.47853-2.8223,1.4355-0.61849,0.95705-0.93751,2.4284-0.95703,4.4141"/>
<path style="" d="m621.39,578.96,0-1.0352,2.5391,0,0-12.129-2.9395,1.9043,0-1.2793,3.5547-2.3047,1.3477,0,0,13.809,2.5391,0,0,1.0352-7.041,0"/>
<path style="" d="m639.34,564.38,0,1.6016-6.6797,0,0,4.1797c0.33854-0.23436,0.73242-0.41015,1.1816-0.52734,0.45572-0.11718,0.96354-0.17577,1.5234-0.17578,1.5755,0.00001,2.819,0.4362,3.7305,1.3086,0.91144,0.8724,1.3672,2.0638,1.3672,3.5742-0.00001,1.543-0.46225,2.7474-1.3867,3.6133-0.91797,0.85938-2.2103,1.2891-3.877,1.2891-0.67058,0-1.3574-0.0814-2.0606-0.24414-0.70312-0.16276-1.4225-0.41015-2.1582-0.74218v-2.832h1.1035c0.0586,0.92449,0.35156,1.6309,0.8789,2.1191,0.53385,0.48829,1.2793,0.73243,2.2363,0.73243,1.0286,0,1.8196-0.33854,2.373-1.0156,0.55337-0.67708,0.83007-1.6504,0.83008-2.9199-0.00001-1.263-0.27671-2.2298-0.83008-2.9004-0.54689-0.67708-1.3379-1.0156-2.373-1.0156-0.58594,0.00001-1.1035,0.10418-1.5527,0.3125-0.44272,0.20835-0.8366,0.53061-1.1816,0.9668h-0.83985v-7.3242h7.7148"/>
<path style="" d="m621.39,609,0-1.0352,2.5391,0,0-12.129-2.9395,1.9043,0-1.2793,3.5547-2.3047,1.3477,0,0,13.809,2.5391,0,0,1.0352-7.041,0"/>
<path style="" d="m636.26,604.06,0-7.7539-4.9805,7.7539,4.9805,0m4.2969,4.9414-6.6406,0,0-1.0352,2.3438,0,0-2.8613-6.3672,0,0-1.0645,6.3867-9.8828,1.9336,0,0,9.9023,2.7832,0,0,1.0449-2.7832,0,0,2.8613,2.3438,0,0,1.0352"/>
<path style="" d="m621.39,639.04,0-1.0352,2.5391,0,0-12.129-2.9395,1.9043,0-1.2793,3.5547-2.3047,1.3477,0,0,13.809,2.5391,0,0,1.0352-7.041,0"/>
<path style="" d="m631.22,625.08c0.76172-0.28645,1.4909-0.50455,2.1875-0.6543,0.70312-0.14973,1.3607-0.2246,1.9727-0.22461,1.4258,0.00001,2.539,0.30926,3.3398,0.92773,0.80077,0.612,1.2012,1.4649,1.2012,2.5586-0.00001,0.87891-0.2767,1.6146-0.83007,2.207-0.5534,0.58594-1.3379,0.98308-2.3535,1.1914,1.1979,0.16928,2.1256,0.60548,2.7832,1.3086,0.66405,0.69662,0.99609,1.6016,0.9961,2.7148-0.00001,1.3607-0.459,2.4056-1.377,3.1348-0.91146,0.72265-2.2266,1.084-3.9453,1.084-0.76172,0-1.5072-0.0814-2.2363-0.24414-0.72266-0.16276-1.4421-0.41015-2.1582-0.74219v-2.832h1.0938c0.0651,0.93751,0.38086,1.6471,0.94727,2.1289,0.5664,0.48177,1.3639,0.72266,2.3926,0.72266,0.99609,0,1.7806-0.28646,2.3535-0.85938,0.57942-0.57942,0.86913-1.3704,0.86914-2.373-0.00001-1.1458-0.29623-2.0117-0.88867-2.5976-0.59246-0.59244-1.4616-0.88867-2.6074-0.88867h-0.92774v-0.9961h0.48828c1.1393,0.00001,1.9922-0.23436,2.5586-0.70312,0.5729-0.47525,0.85936-1.1881,0.85937-2.1387-0.00001-0.85285-0.23438-1.5039-0.70312-1.9531-0.46876-0.45572-1.1426-0.68358-2.0215-0.68359-0.87891,0.00001-1.5625,0.20834-2.0508,0.625-0.48177,0.41668-0.76498,1.0352-0.84961,1.8555h-1.0938v-2.5684"/>
<path style="" d="m621.39,669.08,0-1.0352,2.5391,0,0-12.129-2.9395,1.9043,0-1.2793,3.5547-2.3047,1.3477,0,0,13.809,2.5391,0,0,1.0352-7.041,0"/>
<path style="" d="m631.84,657.98-1.0938,0,0-2.5976c0.69661-0.37108,1.3965-0.65429,2.0996-0.84961,0.70963-0.1953,1.403-0.29296,2.0801-0.29297,1.5169,0.00001,2.7148,0.36785,3.5938,1.1035,0.8789,0.73569,1.3184,1.735,1.3184,2.998-0.00001,1.4258-0.9961,3.1315-2.9883,5.1172-0.15626,0.14974-0.27344,0.26368-0.35156,0.3418l-3.6816,3.6816h6.084v-1.7969h1.1426v3.3984h-9.4043v-1.0644l4.4238-4.4141c0.97656-0.97655,1.6732-1.8717,2.0898-2.6855,0.41665-0.82031,0.62499-1.6797,0.625-2.5781-0.00001-0.98306-0.25717-1.7513-0.77149-2.3047-0.50782-0.55337-1.2109-0.83006-2.1094-0.83007-0.931,0.00001-1.6504,0.23113-2.1582,0.69335-0.50781,0.46226-0.80729,1.1556-0.89843,2.0801"/>
<path style="" d="m621.39,699.12,0-1.0352,2.5391,0,0-12.129-2.9395,1.9043,0-1.2793,3.5547-2.3047,1.3477,0,0,13.809,2.5391,0,0,1.0352-7.041,0"/>
<path style="" d="m632.12,699.12,0-1.0352,2.5391,0,0-12.129-2.9394,1.9043,0-1.2793,3.5547-2.3047,1.3476,0,0,13.809,2.5391,0,0,1.0352-7.041,0"/>
<path style="" d="m621.39,729.16,0-1.0352,2.5391,0,0-12.129-2.9395,1.9043,0-1.2793,3.5547-2.3047,1.3477,0,0,13.809,2.5391,0,0,1.0352-7.041,0"/>
<path style="" d="m635.64,728.48c0.99609,0,1.7415-0.54687,2.2363-1.6406,0.49478-1.0938,0.74218-2.7441,0.74219-4.9512-0.00001-2.2135-0.24741-3.8672-0.74219-4.9609-0.4948-1.0937-1.2402-1.6406-2.2363-1.6406-0.9961,0.00002-1.7415,0.54689-2.2363,1.6406-0.4948,1.0938-0.7422,2.7474-0.74219,4.9609-0.00001,2.207,0.24739,3.8574,0.74219,4.9512,0.49478,1.0938,1.2402,1.6406,2.2363,1.6406m0,0.9668c-1.582,0-2.819-0.66406-3.7109-1.9922-0.88542-1.3281-1.3281-3.1836-1.3281-5.5664,0-2.3893,0.44271-4.248,1.3281-5.5762,0.89192-1.3281,2.1289-1.9922,3.7109-1.9922,1.5885,0.00001,2.8255,0.66407,3.7109,1.9922,0.88541,1.3281,1.3281,3.1868,1.3281,5.5762-0.00001,2.3828-0.44272,4.2383-1.3281,5.5664-0.88542,1.3281-2.1224,1.9922-3.7109,1.9922"/>
<path style="" d="m632.27,752.67c-0.4362,0.48829-0.93751,0.85287-1.5039,1.0938-0.56642,0.24089-1.2044,0.36134-1.9141,0.36133-1.4453,0.00001-2.5879-0.43619-3.4277-1.3086-0.83333-0.87239-1.25-2.0638-1.25-3.5742,0-1.4778,0.45247-2.6595,1.3574-3.5449,0.91146-0.89192,2.1256-1.3379,3.6426-1.3379,1.6471,0.00001,2.9102,0.61525,3.7891,1.8457,0.88541,1.224,1.3281,2.9753,1.3281,5.2539-0.00001,2.5521-0.5241,4.528-1.5723,5.9277s-2.5228,2.0996-4.4238,2.0996c-0.51432,0-1.0547-0.0488-1.6211-0.14648-0.56641-0.0977-1.1458-0.24414-1.7383-0.43946v-2.4219h1.0938c0.0846,0.65755,0.33854,1.1621,0.76172,1.5137,0.42317,0.35156,0.98958,0.52734,1.6992,0.52734,1.263,0,2.2038-0.47526,2.8223-1.4258,0.61848-0.95703,0.93749-2.4316,0.95703-4.4238m-3.1738-7.3438c-0.92449,0.00002-1.6341,0.33856-2.1289,1.0156-0.48829,0.67058-0.73243,1.6374-0.73242,2.9004-0.00001,1.263,0.24413,2.2331,0.73242,2.9102,0.49479,0.67709,1.2044,1.0156,2.1289,1.0156,0.92447,0.00001,1.6308-0.32551,2.1191-0.97656,0.49478-0.65755,0.74217-1.6016,0.74218-2.832-0.00001-1.2956-0.2474-2.2917-0.74218-2.9883-0.4948-0.69661-1.2012-1.0449-2.1191-1.0449"/>
<path style="" d="m632.23,785.26c-0.00001-1.0417-0.26042-1.849-0.78125-2.4219-0.51433-0.57942-1.2402-0.86914-2.1777-0.86914-0.93751,0-1.6667,0.28972-2.1875,0.86914-0.51433,0.57292-0.77149,1.3802-0.77149,2.4219,0,1.0482,0.25716,1.862,0.77149,2.4414,0.52083,0.57292,1.25,0.85937,2.1875,0.85937,0.93749,0,1.6634-0.28645,2.1777-0.85937,0.52083-0.57943,0.78124-1.3932,0.78125-2.4414m-0.40039-7.0801c-0.00001-0.8854-0.22462-1.5755-0.67383-2.0703-0.44922-0.49478-1.0775-0.74217-1.8848-0.74219-0.80079,0.00002-1.429,0.24741-1.8848,0.74219-0.44922,0.49481-0.67383,1.1849-0.67383,2.0703,0,0.89194,0.22461,1.5853,0.67383,2.0801,0.45573,0.4948,1.084,0.7422,1.8848,0.74219,0.80728,0.00001,1.4355-0.24739,1.8848-0.74219,0.44921-0.49478,0.67382-1.1881,0.67383-2.0801m-1.0547,3.3008c1.1068,0.14975,1.9694,0.55991,2.5879,1.2305,0.61848,0.66407,0.92773,1.5137,0.92774,2.5488-0.00001,1.3672-0.43296,2.4219-1.2988,3.1641-0.8659,0.73568-2.1061,1.1035-3.7207,1.1035-1.6081,0-2.8483-0.36784-3.7207-1.1035-0.86588-0.74218-1.2988-1.7969-1.2988-3.1641-0.00001-1.0352,0.30924-1.8848,0.92773-2.5488,0.61849-0.67056,1.4844-1.0807,2.5977-1.2305-0.98308-0.17577-1.7383-0.54686-2.2656-1.1133-0.52083-0.5729-0.78125-1.3021-0.78125-2.1875,0-1.1719,0.40364-2.0931,1.2109-2.7637,0.80729-0.67707,1.9173-1.0156,3.3301-1.0156,1.4128,0.00001,2.5228,0.33855,3.3301,1.0156,0.80729,0.67059,1.2109,1.5918,1.2109,2.7637-0.00001,0.88543-0.26368,1.6146-0.79101,2.1875-0.52085,0.56642-1.2695,0.93751-2.2461,1.1133"/>
<path style="" d="m634.19,805.7-5.7031,13.584-1.4551,0,5.4394-12.979-6.7383,0,0,1.7969-1.1426,0,0-3.3984,9.5996,0,0,0.99609"/>
<path style="" d="m629.46,848.64c0.91796,0,1.6243-0.33528,2.1191-1.0059,0.49479-0.67708,0.74218-1.6471,0.74219-2.9102-0.00001-1.263-0.2474-2.2298-0.74219-2.9004-0.4948-0.67708-1.2012-1.0156-2.1191-1.0156-0.93099,0.00001-1.6406,0.32553-2.1289,0.97656-0.48829,0.65105-0.73243,1.5918-0.73242,2.8223-0.00001,1.2956,0.24739,2.2917,0.74218,2.9883,0.49479,0.69662,1.2012,1.0449,2.1191,1.0449m-3.1836-7.3438c0.4427-0.48827,0.94401-0.85285,1.5039-1.0938,0.55989-0.24087,1.1914-0.36132,1.8945-0.36133,1.4518,0.00001,2.5976,0.43621,3.4375,1.3086,0.84634,0.8724,1.2695,2.0638,1.2695,3.5742-0.00001,1.4779-0.45574,2.6628-1.3672,3.5547-0.90496,0.88542-2.1159,1.3281-3.6328,1.3281-1.6471,0-2.9134-0.61198-3.7988-1.8359-0.88542-1.2305-1.3281-2.985-1.3281-5.2637-0.00001-2.5521,0.52408-4.528,1.5723-5.9277s2.526-2.0996,4.4336-2.0996c0.51432,0.00001,1.0547,0.0488,1.6211,0.14648,0.5664,0.0977,1.1458,0.24415,1.7383,0.43945v2.4024h-1.1035c-0.0781-0.65754-0.32878-1.1588-0.75195-1.5039-0.42318-0.34504-0.99285-0.51756-1.709-0.51758-1.263,0.00002-2.2038,0.47853-2.8223,1.4356-0.61849,0.95704-0.9375,2.4284-0.95703,4.4141"/>
<path style="" d="m632.97,864.78,0,1.6016-6.6797,0,0,4.1797c0.33854-0.23437,0.73242-0.41015,1.1816-0.52735,0.45573-0.11718,0.96354-0.17577,1.5234-0.17578,1.5755,0.00001,2.819,0.43621,3.7305,1.3086,0.91145,0.8724,1.3672,2.0638,1.3672,3.5742-0.00002,1.543-0.46226,2.7474-1.3867,3.6133-0.91798,0.85937-2.2103,1.2891-3.877,1.2891-0.67057,0-1.3574-0.0814-2.0605-0.24414-0.70313-0.16276-1.4225-0.41016-2.1582-0.74219v-2.832h1.1035c0.0586,0.92448,0.35156,1.6309,0.87891,2.1191,0.53385,0.48828,1.2793,0.73242,2.2363,0.73242,1.0286,0,1.8197-0.33854,2.373-1.0156,0.55338-0.67708,0.83007-1.6504,0.83008-2.9199-0.00001-1.263-0.2767-2.2298-0.83008-2.9004-0.54688-0.67707-1.3379-1.0156-2.373-1.0156-0.58594,0.00001-1.1035,0.10417-1.5527,0.3125-0.44271,0.20834-0.83659,0.53061-1.1816,0.9668h-0.83985v-7.3242h7.7148"/>
<path style="" d="m629.9,904.46,0-7.7539-4.9805,7.7539,4.9805,0m4.2969,4.9414-6.6406,0,0-1.0352,2.3438,0,0-2.8613-6.3672,0,0-1.0644,6.3867-9.8828,1.9336,0,0,9.9024,2.7832,0,0,1.0449-2.7832,0,0,2.8613,2.3438,0,0,1.0352"/>
<path style="" d="m624.86,925.48c0.76172-0.28644,1.4909-0.50454,2.1875-0.6543,0.70312-0.14972,1.3607-0.22459,1.9727-0.22461,1.4258,0.00002,2.539,0.30926,3.3398,0.92774,0.80077,0.61199,1.2012,1.4648,1.2012,2.5586-0.00001,0.87892-0.27671,1.6146-0.83008,2.207-0.5534,0.58595-1.3379,0.98308-2.3535,1.1914,1.1979,0.16928,2.1256,0.60548,2.7832,1.3086,0.66405,0.69662,0.99608,1.6016,0.99609,2.7148-0.00001,1.3607-0.459,2.4056-1.377,3.1348-0.91147,0.72266-2.2266,1.084-3.9453,1.084-0.76172,0-1.5072-0.0814-2.2363-0.24414-0.72266-0.16276-1.4421-0.41016-2.1582-0.74219v-2.832h1.0938c0.0651,0.9375,0.38086,1.6471,0.94727,2.1289,0.5664,0.48178,1.3639,0.72266,2.3926,0.72266,0.99608,0,1.7806-0.28646,2.3535-0.85937,0.57942-0.57943,0.86913-1.3704,0.86914-2.373-0.00001-1.1458-0.29623-2.0117-0.88867-2.5977-0.59246-0.59244-1.4616-0.88866-2.6074-0.88867h-0.92774v-0.99609h0.48829c1.1393,0,1.9922-0.23437,2.5586-0.70313,0.57291-0.47525,0.85937-1.1881,0.85937-2.1387,0-0.85285-0.23438-1.5039-0.70312-1.9531-0.46876-0.45571-1.1426-0.68358-2.0215-0.68359-0.87891,0.00001-1.5625,0.20835-2.0508,0.625-0.48177,0.41668-0.76497,1.0352-0.84961,1.8555h-1.0938v-2.5684"/>
<path style="" d="m625.47,958.38-1.0938,0,0-2.5977c0.69661-0.37108,1.3965-0.65428,2.0996-0.84961,0.70963-0.1953,1.403-0.29295,2.0801-0.29297,1.5169,0.00002,2.7148,0.36786,3.5938,1.1035,0.87889,0.73569,1.3183,1.735,1.3184,2.998-0.00002,1.4258-0.99611,3.1315-2.9883,5.1172-0.15625,0.14975-0.27344,0.26368-0.35156,0.3418l-3.6816,3.6816h6.084v-1.7969h1.1426v3.3984h-9.4043v-1.0644l4.4238-4.4141c0.97656-0.97656,1.6732-1.8717,2.0898-2.6856,0.41666-0.8203,0.62499-1.6797,0.625-2.5781-0.00001-0.98307-0.25717-1.7513-0.77149-2.3047-0.50782-0.55337-1.2109-0.83007-2.1094-0.83008-0.931,0.00001-1.6504,0.23113-2.1582,0.69336-0.50782,0.46225-0.8073,1.1556-0.89844,2.0801"/>
<path style="" d="m625.76,999.52,0-1.0352,2.5391,0,0-12.129-2.9394,1.9043,0-1.2793,3.5547-2.3047,1.3476,0,0,13.809,2.5391,0,0,1.0352-7.041,0"/>
</g>
</g>
</svg>
