<!-- Created with Inkscape (http://www.inkscape.org/) -->
<svg xmlns:rdf="http://www.w3.org/1999/02/22-rdf-syntax-ns#" xmlns="http://www.w3.org/2000/svg" version="1.1" xmlns:cc="http://creativecommons.org/ns#" xmlns:dc="http://purl.org/dc/elements/1.1/" viewBox="0 0 450 450">
<metadata>
<rdf:RDF>
<cc:Work rdf:about="">
<dc:format>image/svg+xml</dc:format>
<dc:type rdf:resource="http://purl.org/dc/dcmitype/StillImage"/>
<dc:title/>
<cc:license rdf:resource="http://creativecommons.org/licenses/by-sa/3.0/"/>
<dc:creator>
<cc:Agent>
<dc:title>hickop@gmail.com</dc:title>
</cc:Agent>
</dc:creator>
</cc:Work>
<cc:License rdf:about="http://creativecommons.org/licenses/by-sa/3.0/">
<cc:permits rdf:resource="http://creativecommons.org/ns#Reproduction"/>
<cc:permits rdf:resource="http://creativecommons.org/ns#Distribution"/>
<cc:requires rdf:resource="http://creativecommons.org/ns#Notice"/>
<cc:requires rdf:resource="http://creativecommons.org/ns#Attribution"/>
<cc:permits rdf:resource="http://creativecommons.org/ns#DerivativeWorks"/>
<cc:requires rdf:resource="http://creativecommons.org/ns#ShareAlike"/>
</cc:License>
</rdf:RDF>
</metadata>
<g transform="translate(-15,-587.36218)">
<g stroke-miterlimit="4" stroke-dasharray="none" transform="translate(30,-30.00002)">
<path stroke-linejoin="miter" d="m30,662.36,360,0,0,360-360,0z" stroke="#000" stroke-linecap="butt" stroke-width="1" fill="none"/>
<path stroke-linejoin="miter" d="m60,662.36,0,360" stroke="#000" stroke-linecap="butt" stroke-width="1" fill="none"/>
<path stroke-linejoin="miter" d="M90,1022.4,90,662.36" stroke="#000" stroke-linecap="butt" stroke-width="1.00023043" fill="none"/>
<path stroke-linejoin="miter" d="m120,662.36,0,360" stroke="#000" stroke-linecap="butt" stroke-width="1" fill="none"/>
<path stroke-linejoin="miter" d="m150,1022.4,0-360" stroke="#000" stroke-linecap="butt" stroke-width="1" fill="none"/>
<path stroke-linejoin="miter" d="m180,662.36,0,360" stroke="#000" stroke-linecap="butt" stroke-width="1.00023043" fill="none"/>
<path stroke-linejoin="miter" d="m210,1022.4,0-360" stroke="#000" stroke-linecap="butt" stroke-width="1" fill="none"/>
<path stroke-linejoin="miter" d="m240,662.36,0,360" stroke="#000" stroke-linecap="butt" stroke-width="1" fill="none"/>
<path stroke-linejoin="miter" d="m270,1022.4,0-360" stroke="#000" stroke-linecap="butt" stroke-width="1" fill="none"/>
<path stroke-linejoin="miter" d="m300,662.36,0,360" stroke="#000" stroke-linecap="butt" stroke-width="1.00023043" fill="none"/>
<path stroke-linejoin="miter" d="m330,1022.4,0-360" stroke="#000" stroke-linecap="butt" stroke-width="1.00023043" fill="none"/>
<path stroke-linejoin="miter" d="m360,662.36,0,360" stroke="#000" stroke-linecap="butt" stroke-width="1" fill="none"/>
<path stroke-linejoin="miter" d="m390,992.36-360,0" stroke="#000" stroke-linecap="butt" stroke-width="1.00023055" fill="none"/>
<path stroke-linejoin="miter" d="m30,962.36,360,0" stroke="#000" stroke-linecap="butt" stroke-width="1.00023055" fill="none"/>
<path stroke-linejoin="miter" d="m390,932.36-360,0" stroke="#000" stroke-linecap="butt" stroke-width="1.00023055" fill="none"/>
<path stroke-linejoin="miter" d="m30,902.36,360,0" stroke="#000" stroke-linecap="butt" stroke-width="1" fill="none"/>
<path stroke-linejoin="miter" d="m390,872.36-360,0" stroke="#000" stroke-linecap="butt" stroke-width="1" fill="none"/>
<path stroke-linejoin="miter" d="m30,842.36,360,0" stroke="#000" stroke-linecap="butt" stroke-width="1.00023055" fill="none"/>
<path stroke-linejoin="miter" d="m390,812.36-360,0" stroke="#000" stroke-linecap="butt" stroke-width="1" fill="none"/>
<path stroke-linejoin="miter" d="m30,782.36,360,0" stroke="#000" stroke-linecap="butt" stroke-width="1.00023055" fill="none"/>
<path stroke-linejoin="miter" d="m390,752.36-360,0" stroke="#000" stroke-linecap="butt" stroke-width="1.00023055" fill="none"/>
<path stroke-linejoin="miter" d="m30,722.36,360,0" stroke="#000" stroke-linecap="butt" stroke-width="1" fill="none"/>
<path stroke-linejoin="miter" d="m390,692.36-360,0" stroke="#000" stroke-linecap="butt" stroke-width="1" fill="none"/>
<path d="m150,135c0,8.2843-6.7157,15-15,15s-15-6.7157-15-15,6.7157-15,15-15,15,6.7157,15,15z" transform="matrix(0.09416469,-0.13751651,0.13751651,0.09416469,88.723038,848.21468)" stroke-width="6" fill="#000"/>
<path d="m150,135c0,8.2843-6.7157,15-15,15s-15-6.7157-15-15,6.7157-15,15-15,15,6.7157,15,15z" transform="matrix(0.09416469,-0.13751651,0.13751651,0.09416469,268.72304,848.21468)" stroke-width="6" fill="#000"/>
<path d="m150,135c0,8.2843-6.7157,15-15,15s-15-6.7157-15-15,6.7157-15,15-15,15,6.7157,15,15z" transform="matrix(0.09416469,-0.13751651,0.13751651,0.09416469,178.72304,848.21468)" stroke-width="6" fill="#000"/>
<path d="m150,135c0,8.2843-6.7157,15-15,15s-15-6.7157-15-15,6.7157-15,15-15,15,6.7157,15,15z" transform="matrix(0.09416469,-0.13751651,0.13751651,0.09416469,178.72304,758.21468)" stroke-width="6" fill="#000"/>
<path d="m150,135c0,8.2843-6.7157,15-15,15s-15-6.7157-15-15,6.7157-15,15-15,15,6.7157,15,15z" transform="matrix(0.09416469,-0.13751651,0.13751651,0.09416469,268.72304,758.21468)" stroke-width="6" fill="#000"/>
<path d="m150,135c0,8.2843-6.7157,15-15,15s-15-6.7157-15-15,6.7157-15,15-15,15,6.7157,15,15z" transform="matrix(0.09416469,-0.13751651,0.13751651,0.09416469,178.72304,938.21468)" stroke-width="6" fill="#000"/>
<path d="m150,135c0,8.2843-6.7157,15-15,15s-15-6.7157-15-15,6.7157-15,15-15,15,6.7157,15,15z" transform="matrix(0.09416469,-0.13751651,0.13751651,0.09416469,268.72304,938.21468)" stroke-width="6" fill="#000"/>
<path d="m150,135c0,8.2843-6.7157,15-15,15s-15-6.7157-15-15,6.7157-15,15-15,15,6.7157,15,15z" transform="matrix(0.09416469,-0.13751651,0.13751651,0.09416469,88.723038,938.21468)" stroke-width="6" fill="#000"/>
<path d="m150,135c0,8.2843-6.7157,15-15,15s-15-6.7157-15-15,6.7157-15,15-15,15,6.7157,15,15z" transform="matrix(0.09416469,-0.13751651,0.13751651,0.09416469,88.723038,758.21468)" stroke-width="6" fill="#000"/>
</g>
<path d="m56.921,602.42,5.3516,0-2.6758-6.9336-2.6758,6.9336m-4.121,5.28v-1.0352h1.2793l5.1953-13.545h1.6406l5.2051,13.545h1.4355v1.0352h-5.3027v-1.0352h1.6211l-1.2207-3.2031h-6.1328l-1.2207,3.2031h1.6016v1.0352h-4.1016"/>
<path d="m87.312,606.67,2.9199,0c1.1719,0,2.028-0.2539,2.5684-0.76172,0.54035-0.50781,0.81054-1.3151,0.81055-2.4219-0.000011-1.1003-0.27019-1.901-0.81055-2.4024-0.53386-0.5078-1.39-0.76171-2.5684-0.76172h-2.9199v6.3477m0-7.3828,2.4805,0c1.0677,0.00001,1.8457-0.20507,2.334-0.61524,0.49478-0.41014,0.74218-1.0579,0.74219-1.9434-0.000011-0.89191-0.24741-1.5397-0.74219-1.9434-0.48829-0.41014-1.2663-0.61522-2.334-0.61523h-2.4805v5.1172m-3.8379,8.418,0-1.0352,1.8555,0,0-12.5-1.8555,0,0-1.0449,7.1973,0c1.4713,0.00001,2.5781,0.30275,3.3203,0.9082,0.74869,0.59897,1.123,1.4974,1.123,2.6953-0.000012,0.8659-0.26043,1.556-0.78125,2.0703-0.51433,0.51433-1.2695,0.83008-2.2656,0.94726,1.237,0.15626,2.1745,0.55339,2.8125,1.1914,0.64452,0.63151,0.96678,1.4811,0.9668,2.5488-0.000013,1.4453-0.45574,2.5098-1.3672,3.1934-0.91147,0.68359-2.334,1.0254-4.2676,1.0254h-6.7383"/>
<path d="m126.55,603.84c-0.4297,1.3607-1.1524,2.3926-2.168,3.0957-1.0091,0.69661-2.2884,1.0449-3.8379,1.0449-0.95053,0-1.8327-0.16276-2.6465-0.48828-0.81381-0.32552-1.5365-0.80404-2.168-1.4356-0.72917-0.72916-1.2728-1.556-1.6309-2.4805-0.35157-0.93098-0.52735-1.9824-0.52735-3.1543,0-2.2656,0.6543-4.0918,1.9629-5.4785,1.3086-1.3932,3.0338-2.0898,5.1758-2.0898,0.79426,0.00001,1.6406,0.10418,2.5391,0.3125,0.89842,0.20834,1.8652,0.5241,2.9004,0.94726v3.3594h-1.1035c-0.24089-1.224-0.72592-2.1256-1.4551-2.7051-0.72266-0.57941-1.7383-0.86913-3.0469-0.86914-1.556,0.00001-2.7344,0.5534-3.5352,1.6602-0.80078,1.1003-1.2012,2.7214-1.2012,4.8633,0,2.1354,0.40039,3.7565,1.2012,4.8633,0.80078,1.1003,1.9792,1.6504,3.5352,1.6504,1.0872,0,1.9824-0.25716,2.6856-0.77149,0.70311-0.52083,1.2109-1.2956,1.5234-2.3242h1.7969"/>
<path d="m147.11,606.67,1.8164,0c1.8945,0,3.3464-0.54036,4.3555-1.6211,1.0156-1.0807,1.5234-2.6302,1.5234-4.6484-0.00002-2.0182-0.50457-3.5612-1.5137-4.6289s-2.4642-1.6016-4.3652-1.6016h-1.8164v12.5m-3.8379,1.0352,0-1.0352,1.8555,0,0-12.5-1.8555,0,0-1.0449,5.8008,0c2.513,0.00001,4.4694,0.64129,5.8691,1.9238,1.4062,1.2826,2.1094,3.0664,2.1094,5.3516-0.00001,2.2917-0.70314,4.082-2.1094,5.3711s-3.3626,1.9336-5.8691,1.9336h-5.8008"/>
<path d="m174.32,607.7,0-1.0352,1.8555,0,0-12.5-1.8555,0,0-1.0449,11.738,0,0,3.2422-1.2012,0,0-2.041-6.6992,0,0,4.8828,4.7754,0,0-1.8262,1.2012,0,0,4.8438-1.2012,0,0-1.8262-4.7754,0,0,6.1035,6.8555,0,0-2.041,1.2012,0,0,3.2422-11.895,0"/>
<path d="m204.1,607.7,0-1.0352,1.8555,0,0-12.5-1.8555,0,0-1.0449,11.934,0,0,3.2422-1.2012,0,0-2.041-6.8945,0,0,4.8828,4.9805,0,0-1.8262,1.2012,0,0,4.8438-1.2012,0,0-1.8262-4.9805,0,0,6.2695,2.334,0,0,1.0352-6.1719,0"/>
<path d="m244.8,597.48c-0.22788-1.2174-0.70313-2.1159-1.4258-2.6953-0.72267-0.58592-1.7285-0.87889-3.0176-0.8789-1.6797,0.00001-2.933,0.54038-3.7598,1.6211-0.82683,1.0807-1.2402,2.7149-1.2402,4.9024,0,2.1419,0.42643,3.763,1.2793,4.8633,0.85286,1.1003,2.1061,1.6504,3.7598,1.6504,0.73566,0,1.4388-0.0912,2.1094-0.27344,0.67056-0.18229,1.3086-0.45573,1.9141-0.82031v-3.7598h-2.7441v-1.0449h4.7266v5.4394c-0.86589,0.50131-1.8001,0.87891-2.8027,1.1328-0.9961,0.24739-2.0638,0.37109-3.2031,0.37109-2.2005,0-3.9648-0.68685-5.293-2.0606-1.3216-1.3802-1.9824-3.2129-1.9824-5.498,0-2.3047,0.66407-4.1406,1.9922-5.5078,1.3281-1.3737,3.1152-2.0605,5.3613-2.0605,0.83332,0.00001,1.6927,0.0977,2.5781,0.29297,0.89191,0.18881,1.8392,0.47852,2.8418,0.86914v3.457h-1.0938"/>
<path d="m262.42,607.7,0-1.0352,1.8555,0,0-12.5-1.8555,0,0-1.0449,5.6934,0,0,1.0449-1.8555,0,0,5.0391,7.5586,0,0-5.0391-1.8555,0,0-1.0449,5.6934,0,0,1.0449-1.8555,0,0,12.5,1.8555,0,0,1.0352-5.6934,0,0-1.0352,1.8555,0,0-6.2695-7.5586,0,0,6.2695,1.8555,0,0,1.0352-5.6934,0"/>
<path d="m294.09,611.2,0-2.2949,1.1133,0c0.0195,0.64453,0.17252,1.123,0.45898,1.4356,0.28646,0.319,0.71615,0.47851,1.2891,0.47851,0.77474,0,1.3151-0.24414,1.6211-0.73242,0.30598-0.48828,0.45898-1.4421,0.45898-2.8613v-13.057h-2.2656v-1.0449h6.1035v1.0449h-1.8555v13.135c0,1.6081-0.32227,2.7702-0.96679,3.4863-0.64454,0.71615-1.683,1.0742-3.1152,1.0742-0.46224,0-0.93099-0.0553-1.4062-0.16601-0.48177-0.11068-0.96028-0.2767-1.4355-0.49805"/>
<path d="m322.99,607.7,0-1.0352,1.8555,0,0-12.5-1.8555,0,0-1.0449,5.6934,0,0,1.0449-1.8555,0,0,5.5176,6.2793-5.5176-1.582,0,0-1.0449,4.8438,0,0,1.0449-1.6406,0-6.2598,5.498,7.002,7.002,1.6602,0,0,1.0352-3.3887,0-6.9141-6.9238,0,5.8887,1.8555,0,0,1.0352-5.6934,0"/>
<path d="m352.95,607.7,0-1.0352,1.8555,0,0-12.5-1.8555,0,0-1.0449,5.6934,0,0,1.0449-1.8555,0,0,12.334,6.6602,0,0-2.4414,1.2012,0,0,3.6426-11.699,0"/>
<path d="m381.27,607.7,0-1.0352,1.8555,0,0-12.5-1.9629,0,0-1.0449,4.248,0,5.1172,10.381,5.1172-10.381,3.9844,0,0,1.0449-1.9434,0,0,12.5,1.8652,0,0,1.0352-5.7031,0,0-1.0352,1.8555,0,0-11.27-5,10.166-1.377,0-5-10.166,0,11.27,1.8555,0,0,1.0352-4.9121,0"/>
<path d="m412.19,607.7,0-1.0352,1.9629,0,0-12.5-1.9629,0,0-1.0449,3.7402,0,8.7402,11.504,0-10.459-1.9531,0,0-1.0449,5.1172,0,0,1.0449-1.9629,0,0,13.818-1.1816,0-9.3359-12.285,0,10.967,1.9629,0,0,1.0352-5.127,0"/>
<g transform="translate(0,420.004)">
<path d="m56.921,602.42,5.3516,0-2.6758-6.9336-2.6758,6.9336m-4.121,5.28v-1.0352h1.2793l5.1953-13.545h1.6406l5.2051,13.545h1.4355v1.0352h-5.3027v-1.0352h1.6211l-1.2207-3.2031h-6.1328l-1.2207,3.2031h1.6016v1.0352h-4.1016"/>
<path d="m87.312,606.67,2.9199,0c1.1719,0,2.028-0.2539,2.5684-0.76172,0.54035-0.50781,0.81054-1.3151,0.81055-2.4219-0.000011-1.1003-0.27019-1.901-0.81055-2.4024-0.53386-0.5078-1.39-0.76171-2.5684-0.76172h-2.9199v6.3477m0-7.3828,2.4805,0c1.0677,0.00001,1.8457-0.20507,2.334-0.61524,0.49478-0.41014,0.74218-1.0579,0.74219-1.9434-0.000011-0.89191-0.24741-1.5397-0.74219-1.9434-0.48829-0.41014-1.2663-0.61522-2.334-0.61523h-2.4805v5.1172m-3.8379,8.418,0-1.0352,1.8555,0,0-12.5-1.8555,0,0-1.0449,7.1973,0c1.4713,0.00001,2.5781,0.30275,3.3203,0.9082,0.74869,0.59897,1.123,1.4974,1.123,2.6953-0.000012,0.8659-0.26043,1.556-0.78125,2.0703-0.51433,0.51433-1.2695,0.83008-2.2656,0.94726,1.237,0.15626,2.1745,0.55339,2.8125,1.1914,0.64452,0.63151,0.96678,1.4811,0.9668,2.5488-0.000013,1.4453-0.45574,2.5098-1.3672,3.1934-0.91147,0.68359-2.334,1.0254-4.2676,1.0254h-6.7383"/>
<path d="m126.55,603.84c-0.4297,1.3607-1.1524,2.3926-2.168,3.0957-1.0091,0.69661-2.2884,1.0449-3.8379,1.0449-0.95053,0-1.8327-0.16276-2.6465-0.48828-0.81381-0.32552-1.5365-0.80404-2.168-1.4356-0.72917-0.72916-1.2728-1.556-1.6309-2.4805-0.35157-0.93098-0.52735-1.9824-0.52735-3.1543,0-2.2656,0.6543-4.0918,1.9629-5.4785,1.3086-1.3932,3.0338-2.0898,5.1758-2.0898,0.79426,0.00001,1.6406,0.10418,2.5391,0.3125,0.89842,0.20834,1.8652,0.5241,2.9004,0.94726v3.3594h-1.1035c-0.24089-1.224-0.72592-2.1256-1.4551-2.7051-0.72266-0.57941-1.7383-0.86913-3.0469-0.86914-1.556,0.00001-2.7344,0.5534-3.5352,1.6602-0.80078,1.1003-1.2012,2.7214-1.2012,4.8633,0,2.1354,0.40039,3.7565,1.2012,4.8633,0.80078,1.1003,1.9792,1.6504,3.5352,1.6504,1.0872,0,1.9824-0.25716,2.6856-0.77149,0.70311-0.52083,1.2109-1.2956,1.5234-2.3242h1.7969"/>
<path d="m147.11,606.67,1.8164,0c1.8945,0,3.3464-0.54036,4.3555-1.6211,1.0156-1.0807,1.5234-2.6302,1.5234-4.6484-0.00002-2.0182-0.50457-3.5612-1.5137-4.6289s-2.4642-1.6016-4.3652-1.6016h-1.8164v12.5m-3.8379,1.0352,0-1.0352,1.8555,0,0-12.5-1.8555,0,0-1.0449,5.8008,0c2.513,0.00001,4.4694,0.64129,5.8691,1.9238,1.4062,1.2826,2.1094,3.0664,2.1094,5.3516-0.00001,2.2917-0.70314,4.082-2.1094,5.3711s-3.3626,1.9336-5.8691,1.9336h-5.8008"/>
<path d="m174.32,607.7,0-1.0352,1.8555,0,0-12.5-1.8555,0,0-1.0449,11.738,0,0,3.2422-1.2012,0,0-2.041-6.6992,0,0,4.8828,4.7754,0,0-1.8262,1.2012,0,0,4.8438-1.2012,0,0-1.8262-4.7754,0,0,6.1035,6.8555,0,0-2.041,1.2012,0,0,3.2422-11.895,0"/>
<path d="m204.1,607.7,0-1.0352,1.8555,0,0-12.5-1.8555,0,0-1.0449,11.934,0,0,3.2422-1.2012,0,0-2.041-6.8945,0,0,4.8828,4.9805,0,0-1.8262,1.2012,0,0,4.8438-1.2012,0,0-1.8262-4.9805,0,0,6.2695,2.334,0,0,1.0352-6.1719,0"/>
<path d="m244.8,597.48c-0.22788-1.2174-0.70313-2.1159-1.4258-2.6953-0.72267-0.58592-1.7285-0.87889-3.0176-0.8789-1.6797,0.00001-2.933,0.54038-3.7598,1.6211-0.82683,1.0807-1.2402,2.7149-1.2402,4.9024,0,2.1419,0.42643,3.763,1.2793,4.8633,0.85286,1.1003,2.1061,1.6504,3.7598,1.6504,0.73566,0,1.4388-0.0912,2.1094-0.27344,0.67056-0.18229,1.3086-0.45573,1.9141-0.82031v-3.7598h-2.7441v-1.0449h4.7266v5.4394c-0.86589,0.50131-1.8001,0.87891-2.8027,1.1328-0.9961,0.24739-2.0638,0.37109-3.2031,0.37109-2.2005,0-3.9648-0.68685-5.293-2.0606-1.3216-1.3802-1.9824-3.2129-1.9824-5.498,0-2.3047,0.66407-4.1406,1.9922-5.5078,1.3281-1.3737,3.1152-2.0605,5.3613-2.0605,0.83332,0.00001,1.6927,0.0977,2.5781,0.29297,0.89191,0.18881,1.8392,0.47852,2.8418,0.86914v3.457h-1.0938"/>
<path d="m262.42,607.7,0-1.0352,1.8555,0,0-12.5-1.8555,0,0-1.0449,5.6934,0,0,1.0449-1.8555,0,0,5.0391,7.5586,0,0-5.0391-1.8555,0,0-1.0449,5.6934,0,0,1.0449-1.8555,0,0,12.5,1.8555,0,0,1.0352-5.6934,0,0-1.0352,1.8555,0,0-6.2695-7.5586,0,0,6.2695,1.8555,0,0,1.0352-5.6934,0"/>
<path d="m294.09,611.2,0-2.2949,1.1133,0c0.0195,0.64453,0.17252,1.123,0.45898,1.4356,0.28646,0.319,0.71615,0.47851,1.2891,0.47851,0.77474,0,1.3151-0.24414,1.6211-0.73242,0.30598-0.48828,0.45898-1.4421,0.45898-2.8613v-13.057h-2.2656v-1.0449h6.1035v1.0449h-1.8555v13.135c0,1.6081-0.32227,2.7702-0.96679,3.4863-0.64454,0.71615-1.683,1.0742-3.1152,1.0742-0.46224,0-0.93099-0.0553-1.4062-0.16601-0.48177-0.11068-0.96028-0.2767-1.4355-0.49805"/>
<path d="m322.99,607.7,0-1.0352,1.8555,0,0-12.5-1.8555,0,0-1.0449,5.6934,0,0,1.0449-1.8555,0,0,5.5176,6.2793-5.5176-1.582,0,0-1.0449,4.8438,0,0,1.0449-1.6406,0-6.2598,5.498,7.002,7.002,1.6602,0,0,1.0352-3.3887,0-6.9141-6.9238,0,5.8887,1.8555,0,0,1.0352-5.6934,0"/>
<path d="m352.95,607.7,0-1.0352,1.8555,0,0-12.5-1.8555,0,0-1.0449,5.6934,0,0,1.0449-1.8555,0,0,12.334,6.6602,0,0-2.4414,1.2012,0,0,3.6426-11.699,0"/>
<path d="m381.27,607.7,0-1.0352,1.8555,0,0-12.5-1.9629,0,0-1.0449,4.248,0,5.1172,10.381,5.1172-10.381,3.9844,0,0,1.0449-1.9434,0,0,12.5,1.8652,0,0,1.0352-5.7031,0,0-1.0352,1.8555,0,0-11.27-5,10.166-1.377,0-5-10.166,0,11.27,1.8555,0,0,1.0352-4.9121,0"/>
<path d="m412.19,607.7,0-1.0352,1.9629,0,0-12.5-1.9629,0,0-1.0449,3.7402,0,8.7402,11.504,0-10.459-1.9531,0,0-1.0449,5.1172,0,0,1.0449-1.9629,0,0,13.818-1.1816,0-9.3359-12.285,0,10.967,1.9629,0,0,1.0352-5.127,0"/>
</g>
<path fill="#000" d="m29.677,625.08c0.76172-0.28645,1.4909-0.50455,2.1875-0.6543,0.70312-0.14973,1.3607-0.2246,1.9727-0.22461,1.4258,0.00001,2.5391,0.30926,3.3398,0.92773,0.80077,0.612,1.2012,1.4649,1.2012,2.5586-0.00001,0.87891-0.2767,1.6146-0.83008,2.207-0.5534,0.58595-1.3379,0.98308-2.3535,1.1914,1.1979,0.16927,2.1256,0.60547,2.7832,1.3086,0.66405,0.69662,0.99608,1.6016,0.99609,2.7148-0.000011,1.3607-0.459,2.4056-1.377,3.1348-0.91147,0.72265-2.2266,1.084-3.9453,1.084-0.76172,0-1.5072-0.0814-2.2363-0.24414-0.72266-0.16276-1.4421-0.41015-2.1582-0.74219v-2.832h1.0938c0.0651,0.93751,0.38086,1.6471,0.94727,2.1289,0.5664,0.48177,1.3639,0.72266,2.3926,0.72266,0.99609,0,1.7806-0.28646,2.3535-0.85938,0.57942-0.57942,0.86913-1.3704,0.86914-2.373-0.000009-1.1458-0.29623-2.0117-0.88867-2.5976-0.59246-0.59244-1.4616-0.88867-2.6074-0.88867h-0.92774v-0.9961h0.48828c1.1393,0.00001,1.9922-0.23436,2.5586-0.70312,0.57291-0.47525,0.85937-1.1881,0.85938-2.1387-0.000008-0.85286-0.23438-1.5039-0.70312-1.9531-0.46876-0.45572-1.1426-0.68358-2.0215-0.68359-0.87891,0.00001-1.5625,0.20834-2.0508,0.625-0.48177,0.41668-0.76498,1.0352-0.84961,1.8555h-1.0938v-2.5684"/>
<path fill="#000" d="m30.293,657.98-1.0938,0,0-2.5976c0.69661-0.37108,1.3965-0.65429,2.0996-0.84961,0.70963-0.1953,1.403-0.29296,2.0801-0.29297,1.5169,0.00001,2.7148,0.36785,3.5938,1.1035,0.8789,0.73569,1.3183,1.735,1.3184,2.998-0.000011,1.4258-0.9961,3.1315-2.9883,5.1172-0.15626,0.14974-0.27344,0.26368-0.35156,0.3418l-3.6816,3.6816h6.084v-1.7969h1.1426v3.3984h-9.4043v-1.0644l4.4238-4.4141c0.97656-0.97655,1.6732-1.8717,2.0898-2.6855,0.41666-0.82031,0.62499-1.6797,0.625-2.5781-0.000009-0.98306-0.25717-1.7513-0.77148-2.3047-0.50782-0.55337-1.2109-0.83006-2.1094-0.83007-0.93099,0.00001-1.6504,0.23113-2.1582,0.69336-0.50782,0.46225-0.80729,1.1556-0.89844,2.0801"/>
<path fill="#000" d="m34.091,728.48c0.99609,0,1.7415-0.54687,2.2363-1.6406,0.49478-1.0938,0.74218-2.7441,0.74219-4.9512-0.000009-2.2135-0.2474-3.8672-0.74219-4.9609-0.4948-1.0937-1.2402-1.6406-2.2363-1.6406-0.9961,0.00002-1.7415,0.54689-2.2363,1.6406-0.4948,1.0938-0.74219,2.7474-0.74219,4.9609-0.000003,2.207,0.24739,3.8574,0.74219,4.9512,0.49479,1.0938,1.2402,1.6406,2.2363,1.6406m0,0.9668c-1.582,0-2.819-0.66406-3.7109-1.9922-0.88542-1.3281-1.3281-3.1836-1.3281-5.5664-0.000001-2.3893,0.44271-4.248,1.3281-5.5762,0.89192-1.3281,2.1289-1.9922,3.7109-1.9922,1.5885,0.00001,2.8255,0.66407,3.7109,1.9922,0.88541,1.3281,1.3281,3.1868,1.3281,5.5762-0.000011,2.3828-0.44272,4.2383-1.3281,5.5664-0.88542,1.3281-2.1224,1.9922-3.7109,1.9922"/>
<path fill="#000" d="m19.841,639.04,0-1.0352,2.5391,0,0-12.129-2.9395,1.9043,0-1.2793,3.5547-2.3047,1.3477,0,0,13.809,2.5391,0,0,1.0352-7.041,0"/>
<path fill="#000" d="m19.841,669.08,0-1.0352,2.5391,0,0-12.129-2.9395,1.9043,0-1.2793,3.5547-2.3047,1.3477,0,0,13.809,2.5391,0,0,1.0352-7.041,0"/>
<path fill="#000" d="m19.841,699.12,0-1.0352,2.5391,0,0-12.129-2.9395,1.9043,0-1.2793,3.5547-2.3047,1.3477,0,0,13.809,2.5391,0,0,1.0352-7.041,0"/>
<path fill="#000" d="m30.576,699.12,0-1.0352,2.5391,0,0-12.129-2.9395,1.9043,0-1.2793,3.5547-2.3047,1.3477,0,0,13.809,2.5391,0,0,1.0352-7.041,0"/>
<path fill="#000" d="m19.841,729.16,0-1.0352,2.5391,0,0-12.129-2.9395,1.9043,0-1.2793,3.5547-2.3047,1.3477,0,0,13.809,2.5391,0,0,1.0352-7.041,0"/>
<path fill="#000" d="m30.722,752.67c-0.43621,0.48829-0.93751,0.85287-1.5039,1.0938-0.56641,0.24089-1.2044,0.36134-1.9141,0.36133-1.4453,0.00001-2.5879-0.43619-3.4277-1.3086-0.83334-0.87239-1.25-2.0638-1.25-3.5742-0.000001-1.4778,0.45247-2.6595,1.3574-3.5449,0.91146-0.89191,2.1256-1.3379,3.6426-1.3379,1.6471,0.00001,2.9101,0.61525,3.7891,1.8457,0.8854,1.224,1.3281,2.9753,1.3281,5.2539-0.000012,2.5521-0.5241,4.528-1.5723,5.9277s-2.5228,2.0996-4.4238,2.0996c-0.51433,0-1.0547-0.0488-1.6211-0.14648-0.56641-0.0977-1.1458-0.24414-1.7383-0.43946v-2.4219h1.0938c0.08463,0.65755,0.33854,1.1621,0.76172,1.5137,0.42317,0.35156,0.98958,0.52734,1.6992,0.52734,1.263,0,2.2038-0.47526,2.8223-1.4258,0.61848-0.95703,0.93749-2.4316,0.95703-4.4238m-3.1738-7.3438c-0.92448,0.00002-1.6341,0.33856-2.1289,1.0156-0.48828,0.67058-0.73242,1.6374-0.73242,2.9004-0.000003,1.263,0.24414,2.2331,0.73242,2.9102,0.49479,0.67709,1.2044,1.0156,2.1289,1.0156,0.92447,0.00001,1.6309-0.32551,2.1191-0.97656,0.49478-0.65755,0.74218-1.6016,0.74219-2.832-0.000009-1.2956-0.2474-2.2917-0.74219-2.9883-0.4948-0.6966-1.2012-1.0449-2.1191-1.0449"/>
<path fill="#000" d="m30.683,785.26c-0.00001-1.0417-0.26043-1.849-0.78125-2.4219-0.51433-0.57942-1.2402-0.86914-2.1777-0.86914s-1.6667,0.28972-2.1875,0.86914c-0.51433,0.57292-0.77149,1.3802-0.77148,2.4219-0.000003,1.0482,0.25716,1.862,0.77148,2.4414,0.52083,0.57292,1.25,0.85937,2.1875,0.85937,0.93749,0,1.6634-0.28645,2.1777-0.85937,0.52082-0.57943,0.78124-1.3932,0.78125-2.4414m-0.40039-7.0801c-0.000009-0.8854-0.22462-1.5755-0.67383-2.0703-0.44923-0.49478-1.0775-0.74217-1.8848-0.74219-0.80079,0.00002-1.429,0.24741-1.8848,0.74219-0.44922,0.49481-0.67383,1.1849-0.67383,2.0703-0.000004,0.89194,0.2246,1.5853,0.67383,2.0801,0.45572,0.4948,1.084,0.7422,1.8848,0.74219,0.80728,0.00001,1.4355-0.24739,1.8848-0.74219,0.44921-0.49478,0.67382-1.1881,0.67383-2.0801m-1.0547,3.3008c1.1068,0.14974,1.9694,0.5599,2.5879,1.2305,0.61848,0.66407,0.92772,1.5137,0.92774,2.5488-0.000012,1.3672-0.43295,2.4219-1.2988,3.1641-0.86589,0.73568-2.1061,1.1035-3.7207,1.1035-1.6081,0-2.8483-0.36784-3.7207-1.1035-0.86589-0.74218-1.2988-1.7969-1.2988-3.1641-0.000001-1.0352,0.30924-1.8848,0.92773-2.5488,0.61849-0.67056,1.4844-1.0807,2.5977-1.2305-0.98308-0.17578-1.7383-0.54687-2.2656-1.1133-0.52084-0.5729-0.78125-1.3021-0.78125-2.1875-0.000002-1.1719,0.40364-2.0931,1.2109-2.7637,0.80729-0.67707,1.9173-1.0156,3.3301-1.0156,1.4128,0.00001,2.5228,0.33855,3.3301,1.0156,0.80728,0.67059,1.2109,1.5918,1.2109,2.7637-0.000011,0.88543-0.26368,1.6146-0.79102,2.1875-0.52084,0.56642-1.2695,0.93751-2.2461,1.1133"/>
<path fill="#000" d="m32.646,805.7-5.7031,13.584-1.4551,0,5.4395-12.979-6.7383,0,0,1.7969-1.1426,0,0-3.3984,9.5996,0,0,0.99609"/>
<path fill="#000" d="m27.91,848.64c0.91796,0,1.6243-0.33528,2.1191-1.0059,0.49478-0.67708,0.74218-1.6471,0.74219-2.9102-0.000009-1.263-0.2474-2.2298-0.74219-2.9004-0.4948-0.67708-1.2012-1.0156-2.1191-1.0156-0.931,0.00001-1.6406,0.32553-2.1289,0.97656-0.48828,0.65105-0.73243,1.5918-0.73242,2.8223-0.000004,1.2956,0.24739,2.2917,0.74219,2.9883,0.49479,0.69662,1.2012,1.0449,2.1191,1.0449m-3.1836-7.3438c0.4427-0.48827,0.94401-0.85285,1.5039-1.0938,0.55989-0.24087,1.1914-0.36132,1.8945-0.36133,1.4518,0.00001,2.5976,0.43621,3.4375,1.3086,0.84634,0.8724,1.2695,2.0638,1.2695,3.5742-0.000011,1.4779-0.45574,2.6628-1.3672,3.5547-0.90496,0.88542-2.1159,1.3281-3.6328,1.3281-1.6471,0-2.9134-0.61198-3.7988-1.8359-0.88542-1.2305-1.3281-2.985-1.3281-5.2637-0.000001-2.5521,0.52409-4.528,1.5723-5.9277s2.526-2.0996,4.4336-2.0996c0.51432,0.00001,1.0547,0.0488,1.6211,0.14648,0.5664,0.0977,1.1458,0.24416,1.7383,0.43945v2.4024h-1.1035c-0.07813-0.65754-0.32878-1.1588-0.75195-1.5039-0.42319-0.34504-0.99285-0.51756-1.709-0.51758-1.263,0.00002-2.2038,0.47853-2.8223,1.4356-0.61849,0.95704-0.9375,2.4284-0.95703,4.4141"/>
<path fill="#000" d="m31.425,864.78,0,1.6016-6.6797,0,0,4.1797c0.33854-0.23437,0.73242-0.41015,1.1816-0.52735,0.45572-0.11717,0.96354-0.17577,1.5234-0.17578,1.5755,0.00001,2.819,0.43621,3.7305,1.3086,0.91145,0.8724,1.3672,2.0638,1.3672,3.5742-0.000011,1.543-0.46225,2.7474-1.3867,3.6133-0.91798,0.85937-2.2103,1.2891-3.877,1.2891-0.67058,0-1.3574-0.0814-2.0605-0.24414-0.70313-0.16276-1.4225-0.41016-2.1582-0.74219v-2.832h1.1035c0.05859,0.92448,0.35156,1.6309,0.87891,2.1191,0.53385,0.48828,1.2793,0.73242,2.2363,0.73242,1.0286,0,1.8197-0.33854,2.373-1.0156,0.55338-0.67708,0.83007-1.6504,0.83008-2.9199-0.000009-1.263-0.2767-2.2298-0.83008-2.9004-0.54688-0.67707-1.3379-1.0156-2.373-1.0156-0.58594,0.00001-1.1035,0.10417-1.5527,0.3125-0.44271,0.20834-0.83659,0.53061-1.1816,0.9668h-0.83984v-7.3242h7.7148"/>
<path fill="#000" d="m28.349,904.46,0-7.7539-4.9805,7.7539,4.9805,0m4.2969,4.9414-6.6406,0,0-1.0352,2.3438,0,0-2.8613-6.3672,0,0-1.0644,6.3867-9.8828,1.9336,0,0,9.9024,2.7832,0,0,1.0449-2.7832,0,0,2.8613,2.3438,0,0,1.0352"/>
<path fill="#000" d="m23.31,925.48c0.76172-0.28644,1.4909-0.50454,2.1875-0.6543,0.70312-0.14972,1.3607-0.22459,1.9727-0.22461,1.4258,0.00002,2.5391,0.30926,3.3398,0.92774,0.80077,0.61199,1.2012,1.4648,1.2012,2.5586-0.000011,0.87892-0.2767,1.6146-0.83008,2.207-0.5534,0.58595-1.3379,0.98308-2.3535,1.1914,1.1979,0.16928,2.1256,0.60548,2.7832,1.3086,0.66405,0.69662,0.99608,1.6016,0.99609,2.7148-0.000011,1.3607-0.459,2.4056-1.377,3.1348-0.91147,0.72266-2.2266,1.084-3.9453,1.084-0.76172,0-1.5072-0.0814-2.2363-0.24414-0.72266-0.16276-1.4421-0.41016-2.1582-0.74219v-2.832h1.0938c0.0651,0.9375,0.38086,1.6471,0.94727,2.1289,0.5664,0.48178,1.3639,0.72266,2.3926,0.72266,0.99609,0,1.7806-0.28646,2.3535-0.85937,0.57942-0.57943,0.86913-1.3704,0.86914-2.373-0.000009-1.1458-0.29623-2.0117-0.88867-2.5977-0.59246-0.59244-1.4616-0.88866-2.6074-0.88867h-0.92773v-0.99609h0.48828c1.1393,0.00001,1.9922-0.23437,2.5586-0.70313,0.57291-0.47525,0.85937-1.1881,0.85938-2.1387-0.000009-0.85285-0.23438-1.5039-0.70312-1.9531-0.46876-0.45572-1.1426-0.68358-2.0215-0.6836-0.87891,0.00002-1.5625,0.20835-2.0508,0.625-0.48177,0.41668-0.76498,1.0352-0.84961,1.8555h-1.0938v-2.5684"/>
<path fill="#000" d="m23.925,958.38-1.0938,0,0-2.5977c0.69661-0.37108,1.3965-0.65428,2.0996-0.84961,0.70963-0.1953,1.403-0.29295,2.0801-0.29297,1.5169,0.00002,2.7148,0.36786,3.5938,1.1035,0.8789,0.73569,1.3183,1.735,1.3184,2.998-0.00001,1.4258-0.9961,3.1315-2.9883,5.1172-0.15626,0.14975-0.27344,0.26368-0.35156,0.3418l-3.6816,3.6816h6.084v-1.7969h1.1426v3.3984h-9.4043v-1.0644l4.4238-4.4141c0.97656-0.97656,1.6732-1.8717,2.0898-2.6856,0.41666-0.8203,0.62499-1.6797,0.625-2.5781-0.000008-0.98306-0.25717-1.7513-0.77148-2.3047-0.50782-0.55337-1.2109-0.83007-2.1094-0.83008-0.93099,0.00001-1.6504,0.23113-2.1582,0.69336-0.50782,0.46225-0.8073,1.1556-0.89844,2.0801"/>
<path fill="#000" d="m24.209,999.52,0-1.0352,2.5391,0,0-12.129-2.9395,1.9043,0-1.2793,3.5547-2.3047,1.3477,0,0,13.809,2.5391,0,0,1.0352-7.041,0"/>
<g fill="#000" transform="translate(421.547,0)">
<path d="m29.677,625.08c0.76172-0.28645,1.4909-0.50455,2.1875-0.6543,0.70312-0.14973,1.3607-0.2246,1.9727-0.22461,1.4258,0.00001,2.5391,0.30926,3.3398,0.92773,0.80077,0.612,1.2012,1.4649,1.2012,2.5586-0.00001,0.87891-0.2767,1.6146-0.83008,2.207-0.5534,0.58595-1.3379,0.98308-2.3535,1.1914,1.1979,0.16927,2.1256,0.60547,2.7832,1.3086,0.66405,0.69662,0.99608,1.6016,0.99609,2.7148-0.000011,1.3607-0.459,2.4056-1.377,3.1348-0.91147,0.72265-2.2266,1.084-3.9453,1.084-0.76172,0-1.5072-0.0814-2.2363-0.24414-0.72266-0.16276-1.4421-0.41015-2.1582-0.74219v-2.832h1.0938c0.0651,0.93751,0.38086,1.6471,0.94727,2.1289,0.5664,0.48177,1.3639,0.72266,2.3926,0.72266,0.99609,0,1.7806-0.28646,2.3535-0.85938,0.57942-0.57942,0.86913-1.3704,0.86914-2.373-0.000009-1.1458-0.29623-2.0117-0.88867-2.5976-0.59246-0.59244-1.4616-0.88867-2.6074-0.88867h-0.92774v-0.9961h0.48828c1.1393,0.00001,1.9922-0.23436,2.5586-0.70312,0.57291-0.47525,0.85937-1.1881,0.85938-2.1387-0.000008-0.85286-0.23438-1.5039-0.70312-1.9531-0.46876-0.45572-1.1426-0.68358-2.0215-0.68359-0.87891,0.00001-1.5625,0.20834-2.0508,0.625-0.48177,0.41668-0.76498,1.0352-0.84961,1.8555h-1.0938v-2.5684"/>
<path d="m30.293,657.98-1.0938,0,0-2.5976c0.69661-0.37108,1.3965-0.65429,2.0996-0.84961,0.70963-0.1953,1.403-0.29296,2.0801-0.29297,1.5169,0.00001,2.7148,0.36785,3.5938,1.1035,0.8789,0.73569,1.3183,1.735,1.3184,2.998-0.000011,1.4258-0.9961,3.1315-2.9883,5.1172-0.15626,0.14974-0.27344,0.26368-0.35156,0.3418l-3.6816,3.6816h6.084v-1.7969h1.1426v3.3984h-9.4043v-1.0644l4.4238-4.4141c0.97656-0.97655,1.6732-1.8717,2.0898-2.6855,0.41666-0.82031,0.62499-1.6797,0.625-2.5781-0.000009-0.98306-0.25717-1.7513-0.77148-2.3047-0.50782-0.55337-1.2109-0.83006-2.1094-0.83007-0.93099,0.00001-1.6504,0.23113-2.1582,0.69336-0.50782,0.46225-0.80729,1.1556-0.89844,2.0801"/>
<path d="m34.091,728.48c0.99609,0,1.7415-0.54687,2.2363-1.6406,0.49478-1.0938,0.74218-2.7441,0.74219-4.9512-0.000009-2.2135-0.2474-3.8672-0.74219-4.9609-0.4948-1.0937-1.2402-1.6406-2.2363-1.6406-0.9961,0.00002-1.7415,0.54689-2.2363,1.6406-0.4948,1.0938-0.74219,2.7474-0.74219,4.9609-0.000003,2.207,0.24739,3.8574,0.74219,4.9512,0.49479,1.0938,1.2402,1.6406,2.2363,1.6406m0,0.9668c-1.582,0-2.819-0.66406-3.7109-1.9922-0.88542-1.3281-1.3281-3.1836-1.3281-5.5664-0.000001-2.3893,0.44271-4.248,1.3281-5.5762,0.89192-1.3281,2.1289-1.9922,3.7109-1.9922,1.5885,0.00001,2.8255,0.66407,3.7109,1.9922,0.88541,1.3281,1.3281,3.1868,1.3281,5.5762-0.000011,2.3828-0.44272,4.2383-1.3281,5.5664-0.88542,1.3281-2.1224,1.9922-3.7109,1.9922"/>
<path d="m19.841,639.04,0-1.0352,2.5391,0,0-12.129-2.9395,1.9043,0-1.2793,3.5547-2.3047,1.3477,0,0,13.809,2.5391,0,0,1.0352-7.041,0"/>
<path d="m19.841,669.08,0-1.0352,2.5391,0,0-12.129-2.9395,1.9043,0-1.2793,3.5547-2.3047,1.3477,0,0,13.809,2.5391,0,0,1.0352-7.041,0"/>
<path d="m19.841,699.12,0-1.0352,2.5391,0,0-12.129-2.9395,1.9043,0-1.2793,3.5547-2.3047,1.3477,0,0,13.809,2.5391,0,0,1.0352-7.041,0"/>
<path d="m30.576,699.12,0-1.0352,2.5391,0,0-12.129-2.9395,1.9043,0-1.2793,3.5547-2.3047,1.3477,0,0,13.809,2.5391,0,0,1.0352-7.041,0"/>
<path d="m19.841,729.16,0-1.0352,2.5391,0,0-12.129-2.9395,1.9043,0-1.2793,3.5547-2.3047,1.3477,0,0,13.809,2.5391,0,0,1.0352-7.041,0"/>
<path d="m30.722,752.67c-0.43621,0.48829-0.93751,0.85287-1.5039,1.0938-0.56641,0.24089-1.2044,0.36134-1.9141,0.36133-1.4453,0.00001-2.5879-0.43619-3.4277-1.3086-0.83334-0.87239-1.25-2.0638-1.25-3.5742-0.000001-1.4778,0.45247-2.6595,1.3574-3.5449,0.91146-0.89191,2.1256-1.3379,3.6426-1.3379,1.6471,0.00001,2.9101,0.61525,3.7891,1.8457,0.8854,1.224,1.3281,2.9753,1.3281,5.2539-0.000012,2.5521-0.5241,4.528-1.5723,5.9277s-2.5228,2.0996-4.4238,2.0996c-0.51433,0-1.0547-0.0488-1.6211-0.14648-0.56641-0.0977-1.1458-0.24414-1.7383-0.43946v-2.4219h1.0938c0.08463,0.65755,0.33854,1.1621,0.76172,1.5137,0.42317,0.35156,0.98958,0.52734,1.6992,0.52734,1.263,0,2.2038-0.47526,2.8223-1.4258,0.61848-0.95703,0.93749-2.4316,0.95703-4.4238m-3.1738-7.3438c-0.92448,0.00002-1.6341,0.33856-2.1289,1.0156-0.48828,0.67058-0.73242,1.6374-0.73242,2.9004-0.000003,1.263,0.24414,2.2331,0.73242,2.9102,0.49479,0.67709,1.2044,1.0156,2.1289,1.0156,0.92447,0.00001,1.6309-0.32551,2.1191-0.97656,0.49478-0.65755,0.74218-1.6016,0.74219-2.832-0.000009-1.2956-0.2474-2.2917-0.74219-2.9883-0.4948-0.6966-1.2012-1.0449-2.1191-1.0449"/>
<path d="m30.683,785.26c-0.00001-1.0417-0.26043-1.849-0.78125-2.4219-0.51433-0.57942-1.2402-0.86914-2.1777-0.86914s-1.6667,0.28972-2.1875,0.86914c-0.51433,0.57292-0.77149,1.3802-0.77148,2.4219-0.000003,1.0482,0.25716,1.862,0.77148,2.4414,0.52083,0.57292,1.25,0.85937,2.1875,0.85937,0.93749,0,1.6634-0.28645,2.1777-0.85937,0.52082-0.57943,0.78124-1.3932,0.78125-2.4414m-0.40039-7.0801c-0.000009-0.8854-0.22462-1.5755-0.67383-2.0703-0.44923-0.49478-1.0775-0.74217-1.8848-0.74219-0.80079,0.00002-1.429,0.24741-1.8848,0.74219-0.44922,0.49481-0.67383,1.1849-0.67383,2.0703-0.000004,0.89194,0.2246,1.5853,0.67383,2.0801,0.45572,0.4948,1.084,0.7422,1.8848,0.74219,0.80728,0.00001,1.4355-0.24739,1.8848-0.74219,0.44921-0.49478,0.67382-1.1881,0.67383-2.0801m-1.0547,3.3008c1.1068,0.14974,1.9694,0.5599,2.5879,1.2305,0.61848,0.66407,0.92772,1.5137,0.92774,2.5488-0.000012,1.3672-0.43295,2.4219-1.2988,3.1641-0.86589,0.73568-2.1061,1.1035-3.7207,1.1035-1.6081,0-2.8483-0.36784-3.7207-1.1035-0.86589-0.74218-1.2988-1.7969-1.2988-3.1641-0.000001-1.0352,0.30924-1.8848,0.92773-2.5488,0.61849-0.67056,1.4844-1.0807,2.5977-1.2305-0.98308-0.17578-1.7383-0.54687-2.2656-1.1133-0.52084-0.5729-0.78125-1.3021-0.78125-2.1875-0.000002-1.1719,0.40364-2.0931,1.2109-2.7637,0.80729-0.67707,1.9173-1.0156,3.3301-1.0156,1.4128,0.00001,2.5228,0.33855,3.3301,1.0156,0.80728,0.67059,1.2109,1.5918,1.2109,2.7637-0.000011,0.88543-0.26368,1.6146-0.79102,2.1875-0.52084,0.56642-1.2695,0.93751-2.2461,1.1133"/>
<path d="m32.646,805.7-5.7031,13.584-1.4551,0,5.4395-12.979-6.7383,0,0,1.7969-1.1426,0,0-3.3984,9.5996,0,0,0.99609"/>
<path d="m27.91,848.64c0.91796,0,1.6243-0.33528,2.1191-1.0059,0.49478-0.67708,0.74218-1.6471,0.74219-2.9102-0.000009-1.263-0.2474-2.2298-0.74219-2.9004-0.4948-0.67708-1.2012-1.0156-2.1191-1.0156-0.931,0.00001-1.6406,0.32553-2.1289,0.97656-0.48828,0.65105-0.73243,1.5918-0.73242,2.8223-0.000004,1.2956,0.24739,2.2917,0.74219,2.9883,0.49479,0.69662,1.2012,1.0449,2.1191,1.0449m-3.1836-7.3438c0.4427-0.48827,0.94401-0.85285,1.5039-1.0938,0.55989-0.24087,1.1914-0.36132,1.8945-0.36133,1.4518,0.00001,2.5976,0.43621,3.4375,1.3086,0.84634,0.8724,1.2695,2.0638,1.2695,3.5742-0.000011,1.4779-0.45574,2.6628-1.3672,3.5547-0.90496,0.88542-2.1159,1.3281-3.6328,1.3281-1.6471,0-2.9134-0.61198-3.7988-1.8359-0.88542-1.2305-1.3281-2.985-1.3281-5.2637-0.000001-2.5521,0.52409-4.528,1.5723-5.9277s2.526-2.0996,4.4336-2.0996c0.51432,0.00001,1.0547,0.0488,1.6211,0.14648,0.5664,0.0977,1.1458,0.24416,1.7383,0.43945v2.4024h-1.1035c-0.07813-0.65754-0.32878-1.1588-0.75195-1.5039-0.42319-0.34504-0.99285-0.51756-1.709-0.51758-1.263,0.00002-2.2038,0.47853-2.8223,1.4356-0.61849,0.95704-0.9375,2.4284-0.95703,4.4141"/>
<path d="m31.425,864.78,0,1.6016-6.6797,0,0,4.1797c0.33854-0.23437,0.73242-0.41015,1.1816-0.52735,0.45572-0.11717,0.96354-0.17577,1.5234-0.17578,1.5755,0.00001,2.819,0.43621,3.7305,1.3086,0.91145,0.8724,1.3672,2.0638,1.3672,3.5742-0.000011,1.543-0.46225,2.7474-1.3867,3.6133-0.91798,0.85937-2.2103,1.2891-3.877,1.2891-0.67058,0-1.3574-0.0814-2.0605-0.24414-0.70313-0.16276-1.4225-0.41016-2.1582-0.74219v-2.832h1.1035c0.05859,0.92448,0.35156,1.6309,0.87891,2.1191,0.53385,0.48828,1.2793,0.73242,2.2363,0.73242,1.0286,0,1.8197-0.33854,2.373-1.0156,0.55338-0.67708,0.83007-1.6504,0.83008-2.9199-0.000009-1.263-0.2767-2.2298-0.83008-2.9004-0.54688-0.67707-1.3379-1.0156-2.373-1.0156-0.58594,0.00001-1.1035,0.10417-1.5527,0.3125-0.44271,0.20834-0.83659,0.53061-1.1816,0.9668h-0.83984v-7.3242h7.7148"/>
<path d="m28.349,904.46,0-7.7539-4.9805,7.7539,4.9805,0m4.2969,4.9414-6.6406,0,0-1.0352,2.3438,0,0-2.8613-6.3672,0,0-1.0644,6.3867-9.8828,1.9336,0,0,9.9024,2.7832,0,0,1.0449-2.7832,0,0,2.8613,2.3438,0,0,1.0352"/>
<path d="m23.31,925.48c0.76172-0.28644,1.4909-0.50454,2.1875-0.6543,0.70312-0.14972,1.3607-0.22459,1.9727-0.22461,1.4258,0.00002,2.5391,0.30926,3.3398,0.92774,0.80077,0.61199,1.2012,1.4648,1.2012,2.5586-0.000011,0.87892-0.2767,1.6146-0.83008,2.207-0.5534,0.58595-1.3379,0.98308-2.3535,1.1914,1.1979,0.16928,2.1256,0.60548,2.7832,1.3086,0.66405,0.69662,0.99608,1.6016,0.99609,2.7148-0.000011,1.3607-0.459,2.4056-1.377,3.1348-0.91147,0.72266-2.2266,1.084-3.9453,1.084-0.76172,0-1.5072-0.0814-2.2363-0.24414-0.72266-0.16276-1.4421-0.41016-2.1582-0.74219v-2.832h1.0938c0.0651,0.9375,0.38086,1.6471,0.94727,2.1289,0.5664,0.48178,1.3639,0.72266,2.3926,0.72266,0.99609,0,1.7806-0.28646,2.3535-0.85937,0.57942-0.57943,0.86913-1.3704,0.86914-2.373-0.000009-1.1458-0.29623-2.0117-0.88867-2.5977-0.59246-0.59244-1.4616-0.88866-2.6074-0.88867h-0.92773v-0.99609h0.48828c1.1393,0.00001,1.9922-0.23437,2.5586-0.70313,0.57291-0.47525,0.85937-1.1881,0.85938-2.1387-0.000009-0.85285-0.23438-1.5039-0.70312-1.9531-0.46876-0.45572-1.1426-0.68358-2.0215-0.6836-0.87891,0.00002-1.5625,0.20835-2.0508,0.625-0.48177,0.41668-0.76498,1.0352-0.84961,1.8555h-1.0938v-2.5684"/>
<path d="m23.925,958.38-1.0938,0,0-2.5977c0.69661-0.37108,1.3965-0.65428,2.0996-0.84961,0.70963-0.1953,1.403-0.29295,2.0801-0.29297,1.5169,0.00002,2.7148,0.36786,3.5938,1.1035,0.8789,0.73569,1.3183,1.735,1.3184,2.998-0.00001,1.4258-0.9961,3.1315-2.9883,5.1172-0.15626,0.14975-0.27344,0.26368-0.35156,0.3418l-3.6816,3.6816h6.084v-1.7969h1.1426v3.3984h-9.4043v-1.0644l4.4238-4.4141c0.97656-0.97656,1.6732-1.8717,2.0898-2.6856,0.41666-0.8203,0.62499-1.6797,0.625-2.5781-0.000008-0.98306-0.25717-1.7513-0.77148-2.3047-0.50782-0.55337-1.2109-0.83007-2.1094-0.83008-0.93099,0.00001-1.6504,0.23113-2.1582,0.69336-0.50782,0.46225-0.8073,1.1556-0.89844,2.0801"/>
<path d="m24.209,999.52,0-1.0352,2.5391,0,0-12.129-2.9395,1.9043,0-1.2793,3.5547-2.3047,1.3477,0,0,13.809,2.5391,0,0,1.0352-7.041,0"/>
</g>
</g>
</svg>
