<?xml version="1.0" encoding="UTF-8" standalone="no"?>
<!-- Created with Inkscape (http://www.inkscape.org/) -->

<svg
   xmlns:dc="http://purl.org/dc/elements/1.1/"
   xmlns:cc="http://creativecommons.org/ns#"
   xmlns:rdf="http://www.w3.org/1999/02/22-rdf-syntax-ns#"
   xmlns:svg="http://www.w3.org/2000/svg"
   xmlns="http://www.w3.org/2000/svg"
   xmlns:sodipodi="http://sodipodi.sourceforge.net/DTD/sodipodi-0.dtd"
   xmlns:inkscape="http://www.inkscape.org/namespaces/inkscape"
   width="570"
   height="570"
   id="svg2"
   version="1.1"
   inkscape:version="0.48.3.1 r9886"
   sodipodi:docname="goban19.svg">
  <defs
     id="defs4" />
  <sodipodi:namedview
     id="base"
     pagecolor="#e0b561"
     bordercolor="#666666"
     borderopacity="1.0"
     inkscape:pageopacity="1"
     inkscape:pageshadow="2"
     inkscape:zoom="1.4204163"
     inkscape:cx="262.25834"
     inkscape:cy="551.40309"
     inkscape:document-units="px"
     inkscape:current-layer="layer1"
     showgrid="true"
     showguides="true"
     inkscape:window-width="1276"
     inkscape:window-height="963"
     inkscape:window-x="0"
     inkscape:window-y="29"
     inkscape:window-maximized="0"
     inkscape:snap-bbox="true"
     inkscape:snap-bbox-midpoints="true"
     fit-margin-left="-15"
     fit-margin-right="-15"
     fit-margin-bottom="-15"
     fit-margin-top="-15">
    <inkscape:grid
       type="xygrid"
       id="grid2985"
       empspacing="30"
       visible="true"
       enabled="true"
       snapvisiblegridlinesonly="true"
       originx="-15px"
       originy="-15px" />
  </sodipodi:namedview>
  <metadata
     id="metadata7">
    <rdf:RDF>
      <cc:Work
         rdf:about="">
        <dc:format>image/svg+xml</dc:format>
        <dc:type
           rdf:resource="http://purl.org/dc/dcmitype/StillImage" />
        <dc:title />
      </cc:Work>
    </rdf:RDF>
  </metadata>
  <g
     inkscape:label="Calque 1"
     inkscape:groupmode="layer"
     id="layer1"
     transform="translate(-15,-467.36218)">
    <rect
       style="fill:#e2bd48;fill-opacity:1"
       id="rect3028"
       width="570"
       height="570"
       x="15"
       y="467.36218" />
    <g
       id="g4015">
      <path
         transform="translate(0,452.36218)"
         inkscape:connector-curvature="0"
         id="path3027"
         d="m 30,30 540,0 0,540 -540,0 z"
         style="fill:none;stroke:#000000;stroke-width:1px;stroke-linecap:butt;stroke-linejoin:miter;stroke-opacity:1" />
      <path
         transform="translate(0,452.36218)"
         inkscape:connector-curvature="0"
         id="path3029"
         d="m 60,30 0,540"
         style="fill:none;stroke:#000000;stroke-width:1px;stroke-linecap:butt;stroke-linejoin:miter;stroke-opacity:1" />
      <path
         transform="translate(0,452.36218)"
         inkscape:connector-curvature="0"
         id="path3031"
         d="M 90,570 90,30"
         style="fill:none;stroke:#000000;stroke-width:1px;stroke-linecap:butt;stroke-linejoin:miter;stroke-opacity:1" />
      <path
         transform="translate(0,452.36218)"
         inkscape:connector-curvature="0"
         id="path3033"
         d="m 120,30 0,540"
         style="fill:none;stroke:#000000;stroke-width:1px;stroke-linecap:butt;stroke-linejoin:miter;stroke-opacity:1" />
      <path
         transform="translate(0,452.36218)"
         inkscape:connector-curvature="0"
         id="path3035"
         d="M 150,570 150,30"
         style="fill:none;stroke:#000000;stroke-width:1px;stroke-linecap:butt;stroke-linejoin:miter;stroke-opacity:1" />
      <path
         transform="translate(0,452.36218)"
         inkscape:connector-curvature="0"
         id="path3037"
         d="m 180,30 0,540"
         style="fill:none;stroke:#000000;stroke-width:1px;stroke-linecap:butt;stroke-linejoin:miter;stroke-opacity:1" />
      <path
         transform="translate(0,452.36218)"
         inkscape:connector-curvature="0"
         id="path3039"
         d="M 210,570 210,30"
         style="fill:none;stroke:#000000;stroke-width:1px;stroke-linecap:butt;stroke-linejoin:miter;stroke-opacity:1" />
      <path
         transform="translate(0,452.36218)"
         inkscape:connector-curvature="0"
         id="path3041"
         d="m 240,30 0,540"
         style="fill:none;stroke:#000000;stroke-width:1px;stroke-linecap:butt;stroke-linejoin:miter;stroke-opacity:1" />
      <path
         transform="translate(0,452.36218)"
         inkscape:connector-curvature="0"
         id="path3043"
         d="M 270,570 270,30"
         style="fill:none;stroke:#000000;stroke-width:1px;stroke-linecap:butt;stroke-linejoin:miter;stroke-opacity:1" />
      <path
         transform="translate(0,452.36218)"
         inkscape:connector-curvature="0"
         id="path3045"
         d="m 300,30 0,540"
         style="fill:none;stroke:#000000;stroke-width:1px;stroke-linecap:butt;stroke-linejoin:miter;stroke-opacity:1" />
      <path
         transform="translate(0,452.36218)"
         inkscape:connector-curvature="0"
         id="path3047"
         d="M 330,570 330,30"
         style="fill:none;stroke:#000000;stroke-width:1px;stroke-linecap:butt;stroke-linejoin:miter;stroke-opacity:1" />
      <path
         transform="translate(0,452.36218)"
         inkscape:connector-curvature="0"
         id="path3049"
         d="m 360,30 0,540"
         style="fill:none;stroke:#000000;stroke-width:1px;stroke-linecap:butt;stroke-linejoin:miter;stroke-opacity:1" />
      <path
         transform="translate(0,452.36218)"
         inkscape:connector-curvature="0"
         id="path3051"
         d="M 390,570 390,30"
         style="fill:none;stroke:#000000;stroke-width:1px;stroke-linecap:butt;stroke-linejoin:miter;stroke-opacity:1" />
      <path
         transform="translate(0,452.36218)"
         inkscape:connector-curvature="0"
         id="path3053"
         d="m 420,30 0,540"
         style="fill:none;stroke:#000000;stroke-width:1px;stroke-linecap:butt;stroke-linejoin:miter;stroke-opacity:1" />
      <path
         transform="translate(0,452.36218)"
         inkscape:connector-curvature="0"
         id="path3055"
         d="M 450,570 450,30"
         style="fill:none;stroke:#000000;stroke-width:1px;stroke-linecap:butt;stroke-linejoin:miter;stroke-opacity:1" />
      <path
         transform="translate(0,452.36218)"
         inkscape:connector-curvature="0"
         id="path3057"
         d="m 480,30 0,540"
         style="fill:none;stroke:#000000;stroke-width:1px;stroke-linecap:butt;stroke-linejoin:miter;stroke-opacity:1" />
      <path
         transform="translate(0,452.36218)"
         inkscape:connector-curvature="0"
         id="path3059"
         d="M 510,570 510,30"
         style="fill:none;stroke:#000000;stroke-width:1px;stroke-linecap:butt;stroke-linejoin:miter;stroke-opacity:1" />
      <path
         transform="translate(0,452.36218)"
         inkscape:connector-curvature="0"
         id="path3061"
         d="m 540,30 0,540"
         style="fill:none;stroke:#000000;stroke-width:1px;stroke-linecap:butt;stroke-linejoin:miter;stroke-opacity:1" />
      <path
         transform="translate(0,452.36218)"
         inkscape:connector-curvature="0"
         id="path3063"
         d="M 570,540 30,540"
         style="fill:none;stroke:#000000;stroke-width:1px;stroke-linecap:butt;stroke-linejoin:miter;stroke-opacity:1" />
      <path
         transform="translate(0,452.36218)"
         inkscape:connector-curvature="0"
         id="path3065"
         d="m 30,510 540,0"
         style="fill:none;stroke:#000000;stroke-width:1px;stroke-linecap:butt;stroke-linejoin:miter;stroke-opacity:1" />
      <path
         transform="translate(0,452.36218)"
         inkscape:connector-curvature="0"
         id="path3067"
         d="M 570,480 30,480"
         style="fill:none;stroke:#000000;stroke-width:1px;stroke-linecap:butt;stroke-linejoin:miter;stroke-opacity:1" />
      <path
         transform="translate(0,452.36218)"
         inkscape:connector-curvature="0"
         id="path3069"
         d="m 30,450 540,0"
         style="fill:none;stroke:#000000;stroke-width:1px;stroke-linecap:butt;stroke-linejoin:miter;stroke-opacity:1" />
      <path
         transform="translate(0,452.36218)"
         inkscape:connector-curvature="0"
         id="path3071"
         d="M 570,420 30,420"
         style="fill:none;stroke:#000000;stroke-width:1px;stroke-linecap:butt;stroke-linejoin:miter;stroke-opacity:1" />
      <path
         transform="translate(0,452.36218)"
         inkscape:connector-curvature="0"
         id="path3073"
         d="m 30,390 540,0"
         style="fill:none;stroke:#000000;stroke-width:1px;stroke-linecap:butt;stroke-linejoin:miter;stroke-opacity:1" />
      <path
         transform="translate(0,452.36218)"
         inkscape:connector-curvature="0"
         id="path3075"
         d="M 570,360 30,360"
         style="fill:none;stroke:#000000;stroke-width:1px;stroke-linecap:butt;stroke-linejoin:miter;stroke-opacity:1" />
      <path
         transform="translate(0,452.36218)"
         inkscape:connector-curvature="0"
         id="path3077"
         d="m 30,330 540,0"
         style="fill:none;stroke:#000000;stroke-width:1px;stroke-linecap:butt;stroke-linejoin:miter;stroke-opacity:1" />
      <path
         transform="translate(0,452.36218)"
         inkscape:connector-curvature="0"
         id="path3079"
         d="M 570,300 30,300"
         style="fill:none;stroke:#000000;stroke-width:1px;stroke-linecap:butt;stroke-linejoin:miter;stroke-opacity:1" />
      <path
         transform="translate(0,452.36218)"
         inkscape:connector-curvature="0"
         id="path3081"
         d="m 30,270 540,0"
         style="fill:none;stroke:#000000;stroke-width:1px;stroke-linecap:butt;stroke-linejoin:miter;stroke-opacity:1" />
      <path
         transform="translate(0,452.36218)"
         inkscape:connector-curvature="0"
         id="path3083"
         d="M 570,240 30,240"
         style="fill:none;stroke:#000000;stroke-width:1px;stroke-linecap:butt;stroke-linejoin:miter;stroke-opacity:1" />
      <path
         transform="translate(0,452.36218)"
         inkscape:connector-curvature="0"
         id="path3085"
         d="m 30,210 540,0"
         style="fill:none;stroke:#000000;stroke-width:1px;stroke-linecap:butt;stroke-linejoin:miter;stroke-opacity:1" />
      <path
         transform="translate(0,452.36218)"
         inkscape:connector-curvature="0"
         id="path3087"
         d="m 30,180 540,0"
         style="fill:none;stroke:#000000;stroke-width:1px;stroke-linecap:butt;stroke-linejoin:miter;stroke-opacity:1" />
      <path
         transform="translate(0,452.36218)"
         inkscape:connector-curvature="0"
         id="path3089"
         d="M 570,150 30,150"
         style="fill:none;stroke:#000000;stroke-width:1px;stroke-linecap:butt;stroke-linejoin:miter;stroke-opacity:1" />
      <path
         transform="translate(0,452.36218)"
         inkscape:connector-curvature="0"
         id="path3091"
         d="m 30,120 540,0"
         style="fill:none;stroke:#000000;stroke-width:1px;stroke-linecap:butt;stroke-linejoin:miter;stroke-opacity:1" />
      <path
         transform="translate(0,452.36218)"
         inkscape:connector-curvature="0"
         id="path3093"
         d="M 570,90 30,90"
         style="fill:none;stroke:#000000;stroke-width:1px;stroke-linecap:butt;stroke-linejoin:miter;stroke-opacity:1" />
      <path
         transform="translate(0,452.36218)"
         inkscape:connector-curvature="0"
         id="path3095"
         d="m 30,60 540,0"
         style="fill:#ffb380;stroke:#000000;stroke-width:1px;stroke-linecap:butt;stroke-linejoin:miter;stroke-opacity:1" />
      <path
         inkscape:transform-center-y="2.6277342"
         inkscape:transform-center-x="0.58737045"
         transform="matrix(0.09416469,-0.13751651,0.13751651,0.09416469,88.723038,578.21468)"
         d="m 150,135 c 0,8.28427 -6.71573,15 -15,15 -8.28427,0 -15,-6.71573 -15,-15 0,-8.28427 6.71573,-15 15,-15 8.28427,0 15,6.71573 15,15 z"
         sodipodi:ry="15"
         sodipodi:rx="15"
         sodipodi:cy="135"
         sodipodi:cx="135"
         id="path3869"
         style="fill:#000000;fill-opacity:1"
         sodipodi:type="arc" />
      <path
         inkscape:transform-center-y="2.6277342"
         inkscape:transform-center-x="0.58737045"
         transform="matrix(0.09416469,-0.13751651,0.13751651,0.09416469,448.72304,578.21468)"
         d="m 150,135 c 0,8.28427 -6.71573,15 -15,15 -8.28427,0 -15,-6.71573 -15,-15 0,-8.28427 6.71573,-15 15,-15 8.28427,0 15,6.71573 15,15 z"
         sodipodi:ry="15"
         sodipodi:rx="15"
         sodipodi:cy="135"
         sodipodi:cx="135"
         id="path3869-6"
         style="fill:#000000;fill-opacity:1"
         sodipodi:type="arc" />
      <path
         inkscape:transform-center-y="2.6277342"
         inkscape:transform-center-x="0.58737045"
         transform="matrix(0.09416469,-0.13751651,0.13751651,0.09416469,268.72304,578.21468)"
         d="m 150,135 c 0,8.28427 -6.71573,15 -15,15 -8.28427,0 -15,-6.71573 -15,-15 0,-8.28427 6.71573,-15 15,-15 8.28427,0 15,6.71573 15,15 z"
         sodipodi:ry="15"
         sodipodi:rx="15"
         sodipodi:cy="135"
         sodipodi:cx="135"
         id="path3869-6-1"
         style="fill:#000000;fill-opacity:1"
         sodipodi:type="arc" />
      <path
         inkscape:transform-center-y="2.6277342"
         inkscape:transform-center-x="0.58737045"
         transform="matrix(0.09416469,-0.13751651,0.13751651,0.09416469,448.72304,758.21468)"
         d="m 150,135 c 0,8.28427 -6.71573,15 -15,15 -8.28427,0 -15,-6.71573 -15,-15 0,-8.28427 6.71573,-15 15,-15 8.28427,0 15,6.71573 15,15 z"
         sodipodi:ry="15"
         sodipodi:rx="15"
         sodipodi:cy="135"
         sodipodi:cx="135"
         id="path3869-6-1-0"
         style="fill:#000000;fill-opacity:1"
         sodipodi:type="arc" />
      <path
         inkscape:transform-center-y="2.6277342"
         inkscape:transform-center-x="0.58737045"
         transform="matrix(0.09416469,-0.13751651,0.13751651,0.09416469,268.72304,758.21468)"
         d="m 150,135 c 0,8.28427 -6.71573,15 -15,15 -8.28427,0 -15,-6.71573 -15,-15 0,-8.28427 6.71573,-15 15,-15 8.28427,0 15,6.71573 15,15 z"
         sodipodi:ry="15"
         sodipodi:rx="15"
         sodipodi:cy="135"
         sodipodi:cx="135"
         id="path3869-6-1-0-5"
         style="fill:#000000;fill-opacity:1"
         sodipodi:type="arc" />
      <path
         inkscape:transform-center-y="2.6277342"
         inkscape:transform-center-x="0.58737045"
         transform="matrix(0.09416469,-0.13751651,0.13751651,0.09416469,448.72304,938.21468)"
         d="m 150,135 c 0,8.28427 -6.71573,15 -15,15 -8.28427,0 -15,-6.71573 -15,-15 0,-8.28427 6.71573,-15 15,-15 8.28427,0 15,6.71573 15,15 z"
         sodipodi:ry="15"
         sodipodi:rx="15"
         sodipodi:cy="135"
         sodipodi:cx="135"
         id="path3869-6-1-0-5-5"
         style="fill:#000000;fill-opacity:1"
         sodipodi:type="arc" />
      <path
         inkscape:transform-center-y="2.6277342"
         inkscape:transform-center-x="0.58737045"
         transform="matrix(0.09416469,-0.13751651,0.13751651,0.09416469,268.72304,938.21468)"
         d="m 150,135 c 0,8.28427 -6.71573,15 -15,15 -8.28427,0 -15,-6.71573 -15,-15 0,-8.28427 6.71573,-15 15,-15 8.28427,0 15,6.71573 15,15 z"
         sodipodi:ry="15"
         sodipodi:rx="15"
         sodipodi:cy="135"
         sodipodi:cx="135"
         id="path3869-6-1-0-5-5-3"
         style="fill:#000000;fill-opacity:1"
         sodipodi:type="arc" />
      <path
         inkscape:transform-center-y="2.6277342"
         inkscape:transform-center-x="0.58737045"
         transform="matrix(0.09416469,-0.13751651,0.13751651,0.09416469,88.723038,938.21468)"
         d="m 150,135 c 0,8.28427 -6.71573,15 -15,15 -8.28427,0 -15,-6.71573 -15,-15 0,-8.28427 6.71573,-15 15,-15 8.28427,0 15,6.71573 15,15 z"
         sodipodi:ry="15"
         sodipodi:rx="15"
         sodipodi:cy="135"
         sodipodi:cx="135"
         id="path3869-6-1-0-5-5-3-8"
         style="fill:#000000;fill-opacity:1"
         sodipodi:type="arc" />
      <path
         inkscape:transform-center-y="2.6277342"
         inkscape:transform-center-x="0.58737045"
         transform="matrix(0.09416469,-0.13751651,0.13751651,0.09416469,88.723038,758.21468)"
         d="m 150,135 c 0,8.28427 -6.71573,15 -15,15 -8.28427,0 -15,-6.71573 -15,-15 0,-8.28427 6.71573,-15 15,-15 8.28427,0 15,6.71573 15,15 z"
         sodipodi:ry="15"
         sodipodi:rx="15"
         sodipodi:cy="135"
         sodipodi:cx="135"
         id="path3869-6-1-0-5-5-3-8-1"
         style="fill:#000000;fill-opacity:1"
         sodipodi:type="arc" />
    </g>
  </g>
</svg>
