<!-- Created with Inkscape (http://www.inkscape.org/) -->
<svg xmlns:rdf="http://www.w3.org/1999/02/22-rdf-syntax-ns#" xmlns="http://www.w3.org/2000/svg" height="50" width="50" version="1.1" xmlns:cc="http://creativecommons.org/ns#" xmlns:dc="http://purl.org/dc/elements/1.1/">
<defs></defs>
<metadata>
<rdf:RDF>
<cc:Work rdf:about="">
<dc:format>image/svg+xml</dc:format>
<dc:type rdf:resource="http://purl.org/dc/dcmitype/StillImage"/>
<dc:title/>
</cc:Work>
</rdf:RDF>
</metadata>
<g transform="translate(0,-1002.3622)">
<path stroke-linejoin="round" d="m21.239,1009.3c-0.14086,0-0.3008,0.026-0.46186,0.067-2.6381,0.6745,0.20879,6.2081-2.1114,7.659-2.2664,1.4174-5.7495-3.7995-7.4558-1.7166-1.7468,2.1321,3.7487,4.9578,2.7052,7.5268-1.0193,2.5096-6.8101,0.3922-6.9939,3.1033-0.18819,2.7755,5.8343,1.7179,6.4661,4.4238,0.61716,2.6432-5.3017,4.431-3.8928,6.7347,1.4423,2.3585,5.7859-2.1394,7.8517-0.3301,2.0179,1.7672-1.7376,6.7745,0.72578,7.7911,2.5218,1.0407,3.3596-5.1734,6.0702-4.952,2.6478,0.2162,2.5035,6.4692,5.0805,5.8103,2.6381-0.6746-0.20879-6.2081,2.1114-7.659,2.2664-1.4174,5.7495,3.7994,7.4558,1.7166,1.7468-2.1321-3.7487-4.9578-2.7052-7.5269,1.0193-2.5096,6.8101-0.3921,6.9939-3.1032,0.18819-2.7756-5.8343-1.7179-6.4661-4.4238-0.61716-2.6433,5.3017-4.431,3.8928-6.7348-1.4423-2.3584-5.7859,2.1395-7.8517,0.3302-2.0179-1.7672,1.7376-6.7745-0.72578-7.7911-2.5218-1.0408-3.3596,5.1734-6.0702,4.952-2.4823-0.2032-2.5057-5.7273-4.6186-5.8764zm3.761,11.7c3.4982,0,6.3341,2.8378,6.3341,6.3385,0,3.5006-2.8359,6.3384-6.3341,6.3384s-6.3341-2.8378-6.3341-6.3384c0-3.5007,2.8359-6.3385,6.3341-6.3385z" clip-path="none" fill-rule="nonzero" stroke-dashoffset="4" stroke="#0b0900" stroke-linecap="butt" stroke-miterlimit="4" stroke-dasharray="none" stroke-width="1.83411479" fill="#000"/>
</g>
</svg>
