<!-- Created with Inkscape (http://www.inkscape.org/) -->
<svg xmlns:rdf="http://www.w3.org/1999/02/22-rdf-syntax-ns#" xmlns="http://www.w3.org/2000/svg" height="30" width="30" version="1.1" xmlns:cc="http://creativecommons.org/ns#" xmlns:dc="http://purl.org/dc/elements/1.1/">
<metadata>
<rdf:RDF>
<cc:Work rdf:about="">
<dc:format>image/svg+xml</dc:format>
<dc:type rdf:resource="http://purl.org/dc/dcmitype/StillImage"/>
<dc:title/>
</cc:Work>
</rdf:RDF>
</metadata>
<g transform="translate(0,-1022.3622)">
<path d="M30,15c0,8.284-6.716,15-15,15-8.2843,0-15-6.716-15-15,0-8.2843,6.7157-15,15-15,8.284,0,15,6.7157,15,15z" transform="translate(0,1022.3622)" fill="#FFF"/>
<path d="M15,10.5c0,2.485-1.343,4.5-3,4.5s-3-2.015-3-4.5c0-2.4853,1.343-4.5,3-4.5,1.6569,0,3,2.0147,3,4.5z" transform="matrix(2.3332916,0,0,1.5555278,-12.999499,1021.0292)" stroke="#000" stroke-dasharray="none" stroke-miterlimit="4" stroke-width="1.04980007" fill="none"/>
</g>
</svg>
